<svg width="138" height="138" viewBox="0 0 138 138" fill="none" xmlns="http://www.w3.org/2000/svg">
<path d="M49.8769 99.3896L51.7231 100.373C53.8255 101.478 56.1704 102.476 58.6366 103.217L60.6177 103.837V113.095C60.6177 115.319 62.1001 115.818 63.3399 115.818H74.4446C75.6845 115.818 77.1669 115.319 77.1669 113.095V103.837L79.1479 103.217C81.6142 102.476 83.9591 101.492 86.0614 100.373L87.9077 99.3896L89.3901 100.872C91.9776 103.46 93.7161 105.319 94.4573 105.804C95.0772 106.424 95.6972 106.788 96.3036 106.788C97.4087 106.788 98.406 105.926 98.406 105.804L106.303 97.9072C107.166 97.0447 107.907 95.5623 106.303 93.9585L99.7671 87.4224L100.751 85.5761C101.856 83.4738 102.853 81.1289 103.594 78.6627L104.214 76.6816H113.473C115.696 76.6816 116.195 75.1992 116.195 73.9593V62.8546C116.195 61.6148 115.696 60.1324 113.473 60.1324H104.214L103.594 58.1513C102.732 55.8064 101.869 53.4615 100.63 51.3591L99.6458 49.5128L101.128 48.0304L106.195 42.9632C106.815 42.3433 107.179 41.7234 107.179 41.1169C107.179 40.2544 106.559 39.3919 106.195 39.0146L98.2712 31.1308C98.0286 30.8882 97.1661 30.147 96.1688 30.147C95.5489 30.147 94.929 30.3896 94.3226 31.1308L87.7864 37.6669L85.9401 36.6832C83.8378 35.5781 81.4929 34.5808 79.1479 33.8396L77.1669 33.341V23.9613C77.1669 21.6164 75.1858 21.239 74.3233 21.239H63.3399C62.4774 21.239 60.6177 21.6029 60.6177 23.9613V33.341L58.6366 33.9609C56.2917 34.7021 53.9468 35.5646 51.8444 36.8044L49.9981 37.7882L43.3407 31.1308C42.7208 30.5109 42.1009 30.2683 41.6157 30.2683C40.6319 30.2683 39.6347 31.0095 39.3921 31.2521L31.4948 39.0281C30.9962 39.648 29.7698 41.2517 31.4948 42.9767L38.031 49.5263L37.0472 51.3726C35.9421 53.475 34.9448 55.8199 34.2036 58.1648L33.5837 60.1459H24.3253C22.1017 60.2671 21.603 61.9921 21.603 63.1107V74.0941C21.603 74.9566 21.9669 76.8164 24.3253 76.8164H33.5837L34.2036 78.7974C34.9448 81.2636 35.9286 83.4873 37.0472 85.7109L38.031 87.5572L31.4948 94.0933C29.8911 95.697 30.8749 97.3007 31.4948 98.042L39.2708 105.818C39.5134 105.939 40.5106 106.68 41.3731 106.68C41.9931 106.68 42.4782 106.438 43.0981 105.818L49.8769 99.3896Z" fill="white"/>
<path d="M66.8977 94.2145H66.7899C66.3182 94.1741 65.8465 94.1202 65.3748 94.0663C64.6336 93.972 64.1215 93.2847 64.2159 92.5435C64.3102 91.8022 64.9975 91.2901 65.7387 91.3845C66.1565 91.4384 66.5877 91.4923 67.0055 91.5192C67.7467 91.5731 68.2993 92.2335 68.2453 92.9747C68.178 93.689 67.585 94.2145 66.8977 94.2145ZM72.2614 94.0663C71.601 94.0663 71.0215 93.5812 70.9272 92.9073C70.8194 92.1661 71.345 91.4923 72.0727 91.3845C72.4905 91.3306 72.9082 91.2632 73.326 91.1823C74.0537 91.0341 74.768 91.5192 74.9028 92.247C75.0375 92.9747 74.5659 93.689 73.8381 93.8237C73.3799 93.9181 72.9082 93.9989 72.4366 94.0528C72.3961 94.0663 72.3287 94.0663 72.2614 94.0663ZM60.3346 92.7591C60.1729 92.7591 60.0246 92.7321 59.8629 92.6782C59.4182 92.5165 58.9735 92.3278 58.5422 92.1392C57.8549 91.8427 57.545 91.0476 57.8549 90.3603C58.1514 89.6729 58.9465 89.363 59.6338 89.673C60.0246 89.8481 60.4155 90.0099 60.8198 90.1581C61.5205 90.4142 61.8709 91.1958 61.6149 91.8966C61.3993 92.4222 60.8871 92.7591 60.3346 92.7591ZM78.7301 92.247C78.218 92.247 77.7194 91.9505 77.4903 91.4384C77.1938 90.7511 77.5037 89.956 78.1776 89.6595C78.5684 89.4843 78.9457 89.3091 79.3231 89.1204C79.9834 88.7835 80.792 89.053 81.1289 89.7134C81.4659 90.3737 81.1963 91.1823 80.536 91.5192C80.1182 91.7349 79.6869 91.937 79.2557 92.1257C79.094 92.2065 78.9188 92.247 78.7301 92.247ZM54.4319 89.5651C54.1489 89.5651 53.8793 89.4843 53.6368 89.3091C53.2594 89.0261 52.8821 88.7296 52.5182 88.4331C51.9387 87.9614 51.8578 87.1124 52.3295 86.5329C52.8012 85.9534 53.6502 85.8726 54.2297 86.3442C54.5532 86.6138 54.8901 86.8833 55.2405 87.1259C55.8469 87.5706 55.9682 88.4062 55.5235 89.0126C55.2539 89.3765 54.8362 89.5651 54.4319 89.5651ZM84.4442 88.7161C84.0533 88.7161 83.676 88.5544 83.4065 88.231C82.9348 87.6515 83.0157 86.8024 83.5817 86.3308C83.9051 86.0612 84.2285 85.7782 84.5385 85.4952C85.091 84.9966 85.9401 85.0235 86.4387 85.5761C86.9373 86.1286 86.9104 86.9776 86.3578 87.4763C86.0075 87.7997 85.6571 88.1097 85.2932 88.4062C85.0506 88.6218 84.7407 88.7161 84.4442 88.7161ZM49.6073 84.8888C49.203 84.8888 48.8121 84.7136 48.5426 84.3767C48.2461 83.9993 47.9631 83.622 47.6936 83.2311C47.2623 82.6247 47.4241 81.7757 48.0305 81.3579C48.6369 80.9267 49.486 81.0884 49.9037 81.6948C50.1463 82.0452 50.4024 82.3821 50.6584 82.719C51.1166 83.312 51.0088 84.1476 50.4293 84.6058C50.1868 84.7944 49.9037 84.8888 49.6073 84.8888ZM88.9858 83.7837C88.7162 83.7837 88.4467 83.7028 88.2176 83.5411C87.6112 83.1233 87.4494 82.2743 87.8807 81.6679C88.1233 81.3175 88.3524 80.9671 88.5815 80.6032C88.9723 79.9698 89.8078 79.7677 90.4412 80.1585C91.0746 80.5493 91.2768 81.3849 90.886 82.0183C90.6434 82.4226 90.3739 82.8134 90.1043 83.2042C89.8348 83.5815 89.417 83.7837 88.9858 83.7837ZM46.2381 79.0804C45.7125 79.0804 45.2004 78.7704 44.9848 78.2448C44.8096 77.8136 44.6344 77.3554 44.4862 76.9106C44.2436 76.2099 44.6209 75.4417 45.3217 75.1991C46.0225 74.9565 46.7907 75.3339 47.0332 76.0347C47.168 76.439 47.3162 76.8298 47.478 77.2206C47.761 77.9079 47.4241 78.703 46.7368 78.9726C46.5885 79.0399 46.4133 79.0804 46.2381 79.0804ZM92.0315 77.7866C91.8832 77.7866 91.735 77.7597 91.6002 77.7192C90.8994 77.4767 90.5221 76.7085 90.7647 76.0077C90.8994 75.6034 91.0342 75.1991 91.142 74.7948C91.3442 74.0806 92.0854 73.6628 92.7996 73.8649C93.5139 74.0671 93.9317 74.8083 93.7295 75.5226C93.5948 75.9808 93.46 76.439 93.3118 76.8837C93.1096 77.4362 92.584 77.7866 92.0315 77.7866ZM44.594 72.5712C43.9202 72.5712 43.3272 72.0591 43.2598 71.3718C43.2059 70.9001 43.1655 70.4284 43.1385 69.9567C43.0981 69.2155 43.6641 68.5821 44.4053 68.5417C45.1465 68.5013 45.7799 69.0673 45.8203 69.8085C45.8473 70.2263 45.8743 70.6575 45.9282 71.0753C46.009 71.8165 45.4834 72.4769 44.7422 72.5577C44.6883 72.5712 44.6344 72.5712 44.594 72.5712ZM93.3118 71.1966H93.2309C92.4897 71.1561 91.9237 70.5227 91.9641 69.7815C91.9911 69.3638 92.0045 68.9325 92.0045 68.5147C92.0045 67.7735 92.611 67.1671 93.3522 67.1671C94.0934 67.1671 94.6998 67.7735 94.6998 68.5147C94.6998 68.9864 94.6864 69.4581 94.6594 69.9298C94.619 70.644 94.026 71.1966 93.3118 71.1966ZM44.7692 65.8599C44.7018 65.8599 44.6209 65.8599 44.5536 65.8464C43.8123 65.7251 43.3272 65.0378 43.4485 64.2966C43.5293 63.8249 43.6102 63.3667 43.718 62.895C43.8797 62.1673 44.594 61.7091 45.3217 61.8708C46.0494 62.0325 46.5077 62.7468 46.3459 63.4745C46.2516 63.8923 46.1707 64.3101 46.1034 64.7278C45.9821 65.3882 45.4161 65.8599 44.7692 65.8599ZM93.0018 65.752C92.3549 65.752 91.7889 65.2804 91.6811 64.6335C91.6137 64.2157 91.5328 63.7979 91.4385 63.3802C91.2768 62.6524 91.735 61.9382 92.4493 61.763C93.177 61.6013 93.8912 62.0595 94.0664 62.7737C94.1743 63.2319 94.2686 63.7036 94.336 64.1753C94.4573 64.903 93.9586 65.6038 93.2309 65.7251C93.15 65.7521 93.0826 65.752 93.0018 65.752ZM46.7502 59.445C46.5616 59.445 46.3594 59.4046 46.1707 59.3103C45.4969 58.9868 45.2139 58.1917 45.5239 57.5179C45.726 57.0866 45.9416 56.6688 46.1707 56.2511C46.5211 55.5907 47.3432 55.3481 48.0036 55.712C48.6639 56.0624 48.9065 56.8845 48.5426 57.5448C48.3405 57.9222 48.1518 58.2995 47.9631 58.6769C47.7475 59.162 47.2623 59.445 46.7502 59.445ZM90.9803 59.3507C90.4817 59.3507 89.9965 59.0677 89.7674 58.5825C89.5922 58.2052 89.3901 57.8144 89.1879 57.4505C88.8375 56.8036 89.0666 55.9815 89.727 55.6177C90.3739 55.2673 91.1959 55.4964 91.5598 56.1567C91.7889 56.5745 92.0045 56.9923 92.2067 57.4235C92.5301 58.0974 92.2471 58.906 91.5733 59.2159C91.3711 59.3103 91.1825 59.3507 90.9803 59.3507ZM50.4293 53.8118C50.1194 53.8118 49.7959 53.704 49.5399 53.4749C48.9739 52.9897 48.92 52.1407 49.4051 51.5747C49.7151 51.2243 50.0385 50.8604 50.362 50.5235C50.8741 49.9845 51.7366 49.971 52.2621 50.4966C52.8012 51.0087 52.8147 51.8712 52.2891 52.3968C51.9926 52.6933 51.7096 53.0167 51.4266 53.3401C51.184 53.6636 50.8067 53.8118 50.4293 53.8118ZM87.3012 53.7444C86.9239 53.7444 86.56 53.5827 86.2905 53.2862C86.0075 52.9628 85.7244 52.6528 85.428 52.3563C84.9024 51.8173 84.9159 50.9683 85.4549 50.4562C85.9805 49.9306 86.843 49.944 87.3551 50.4831C87.6786 50.82 88.0155 51.1704 88.3254 51.5208C88.8106 52.0868 88.7567 52.9358 88.2041 53.421C87.9211 53.6366 87.6112 53.7444 87.3012 53.7444ZM55.483 49.3915C55.0383 49.3915 54.6205 49.1759 54.351 48.7851C53.9467 48.1651 54.1219 47.3296 54.7418 46.9253C55.1327 46.6692 55.537 46.4132 55.9547 46.1841C56.6016 45.8067 57.4237 46.0358 57.801 46.6692C58.1784 47.3161 57.9627 48.1382 57.3159 48.5155C56.952 48.7312 56.5881 48.9468 56.2377 49.1894C55.9952 49.3241 55.7391 49.3915 55.483 49.3915ZM82.2205 49.3511C81.9645 49.3511 81.7084 49.2837 81.4928 49.1355C81.1424 48.9063 80.7785 48.6772 80.4012 48.4751C79.7543 48.0978 79.5387 47.2757 79.9026 46.6288C80.2664 45.9819 81.102 45.7663 81.7489 46.1302C82.1532 46.3593 82.5709 46.6153 82.9618 46.8714C83.5817 47.2757 83.7569 48.1112 83.3526 48.7312C83.0965 49.1355 82.6653 49.3511 82.2205 49.3511ZM61.5475 46.521C60.968 46.521 60.4424 46.1571 60.2672 45.5776C60.0381 44.8634 60.4424 44.1087 61.1432 43.8931C61.5879 43.7448 62.0596 43.6235 62.5043 43.5022C63.2321 43.3136 63.9598 43.7583 64.1485 44.4726C64.3371 45.2003 63.8924 45.928 63.1782 46.1167C62.7739 46.2245 62.3561 46.3323 61.9518 46.4671C61.817 46.494 61.6823 46.521 61.5475 46.521ZM76.1426 46.494C76.0078 46.494 75.8731 46.4806 75.7383 46.4267C75.334 46.3054 74.9297 46.1841 74.512 46.0897C73.7842 45.9146 73.353 45.1733 73.5282 44.4591C73.7034 43.7313 74.4446 43.3001 75.1588 43.4753C75.617 43.5966 76.0752 43.7179 76.5334 43.8526C77.2477 44.0683 77.6385 44.8229 77.4229 45.5372C77.2477 46.1167 76.7221 46.494 76.1426 46.494ZM68.1645 45.4024C67.4368 45.4024 66.8438 44.823 66.8168 44.0952C66.7899 43.354 67.3828 42.7341 68.1241 42.7071C68.5957 42.6937 69.0809 42.6937 69.5391 42.7071C70.2803 42.7206 70.8733 43.3405 70.8463 44.0952C70.8328 44.823 70.2264 45.4024 69.4987 45.4024H69.4582C69.0405 45.389 68.6092 45.389 68.178 45.4024H68.1645Z" fill="#003B70"/>
<path d="M74.4446 118.472H63.3399C60.1056 118.472 57.9224 116.303 57.9224 113.055V105.778L57.855 105.751C55.3214 104.982 52.8417 103.972 50.4698 102.718L50.3216 102.638L44.9714 107.705C44.2571 108.406 43.1116 109.335 41.3597 109.335C39.8907 109.335 38.6509 108.567 38.0579 108.19C38.031 108.176 38.0175 108.163 37.9905 108.149L37.6671 107.988L29.5003 99.8209L29.4194 99.7266C27.371 97.2739 27.4384 94.2956 29.5812 92.1393L34.7157 87.0047L34.6349 86.8565C33.6915 84.9832 32.5056 82.4631 31.6296 79.5252L31.6026 79.4579H24.3253C20.6058 79.4579 18.9077 76.6547 18.9077 74.0403V63.0704C18.9077 60.402 20.5384 57.6124 24.1636 57.4102H31.5892L31.6161 57.3293C32.3978 54.8497 33.4489 52.3565 34.6483 50.079L34.7022 49.9846L29.5677 44.85C28.7591 44.0415 26.3468 41.0901 29.3655 37.3032L29.4599 37.1819L37.4784 29.2981C37.6671 29.1094 39.3517 27.5327 41.5888 27.5327C42.869 27.5327 44.1628 28.1256 45.2274 29.1903L50.4833 34.4461L50.5237 34.4192C53.0034 32.9637 55.7257 32.0204 57.8146 31.36L57.9089 31.3331V23.9344C57.9089 20.2149 60.712 18.5168 63.3265 18.5168H74.3099C74.9837 18.5168 76.2774 18.6381 77.5038 19.4198C79.0132 20.3901 79.8353 21.9803 79.8353 23.9209V31.1983L79.9296 31.2252C82.3958 32.0069 84.9024 33.0446 87.1665 34.2575L87.2608 34.3114L92.3146 29.2577C93.6353 27.7348 95.1312 27.3979 96.1419 27.3979C98.2038 27.3979 99.7267 28.759 100.144 29.1768L108.042 37.0741C108.904 37.9366 109.821 39.4325 109.821 41.0766C109.821 42.3973 109.228 43.6506 108.042 44.8366L102.907 49.9711L102.934 50.0116C104.282 52.3026 105.185 54.7823 106.074 57.1811L106.142 57.3967H113.419C116.653 57.3967 118.836 59.5665 118.836 62.8143V73.919C118.836 77.1534 116.667 79.3366 113.419 79.3366H106.142L106.115 79.4039C105.346 81.9375 104.336 84.4307 103.082 86.7891L103.028 86.8834L108.163 92.018C109.47 93.3252 110.077 94.9289 109.848 96.5461C109.686 97.7186 109.106 98.8372 108.163 99.7805L100.441 107.543C99.4841 108.756 97.6782 109.457 96.2901 109.457C95.0368 109.457 93.8374 108.918 92.7054 107.853C92.0046 107.327 91.1286 106.438 89.4036 104.699C88.8241 104.12 88.1772 103.46 87.4765 102.745L87.4091 102.678L87.3148 102.732C84.9429 103.985 82.4632 105.009 79.9296 105.764L79.8622 105.791V113.068C79.8622 116.303 77.679 118.472 74.4446 118.472ZM63.313 113.082H74.4446V101.815L78.3394 100.603C80.5495 99.9422 82.7058 99.0528 84.7677 97.9612L88.3794 96.034L91.2769 98.9315C92.0046 99.6592 92.6515 100.32 93.231 100.913C94.3765 102.085 95.5759 103.284 95.9263 103.54L96.1554 103.689L96.3306 103.877L96.3979 103.945L104.363 95.9801C104.39 95.9532 104.403 95.9262 104.43 95.9127C104.417 95.8858 104.39 95.8723 104.363 95.8454L96.4114 87.8942L98.3386 84.2825C99.4302 82.234 100.306 80.0643 100.98 77.8676L100.993 77.8407L102.206 73.9729H113.473V62.8547V62.8413H102.206L101.02 59.0409C100.185 56.7633 99.3897 54.6206 98.2847 52.7473L98.2308 52.653L96.3036 49.0413L104.255 41.0901L104.322 41.0227C104.295 40.9957 104.282 40.9688 104.255 40.9418L96.3575 33.0446C96.3306 33.0311 96.3171 33.0041 96.2767 32.9772L88.2716 40.9553L84.6599 39.0282C82.7058 37.9905 80.536 37.0875 78.4067 36.4002L74.4716 35.4165V23.9344V23.9209C74.4177 23.9075 74.3772 23.9075 74.3233 23.9075H63.3399H63.3265V35.2817L59.4587 36.4946C57.6259 37.0741 55.254 37.8961 53.2325 39.0821L53.1382 39.136L49.5265 41.0631L41.481 33.0176C41.4001 33.0581 41.3327 33.112 41.2788 33.1524L33.5298 40.7801C33.4624 40.861 33.422 40.9284 33.3815 40.9823L33.422 41.0227L41.3731 48.9739L39.446 52.5856C38.3948 54.5667 37.4784 56.7499 36.8046 58.9196L35.6052 62.7739H24.4601C24.4331 62.7739 24.4062 62.7873 24.3792 62.7873C24.3657 62.8547 24.3522 62.9356 24.3522 63.0434V74.0403H35.6052L36.8181 77.935C37.411 79.9026 38.2331 81.8971 39.4729 84.3903L41.3866 87.975L33.4354 95.9262L33.395 95.9666C33.422 96.0205 33.4624 96.0879 33.5298 96.1688L40.9688 103.608C41.0497 103.648 41.1575 103.729 41.2788 103.783L49.4726 96.034L53.0304 97.9342C55.0788 99.0258 57.2485 99.9018 59.4452 100.576L59.4722 100.589L63.3399 101.802V113.068C63.313 113.068 63.313 113.082 63.313 113.082ZM41.2923 33.1254L41.2653 33.1524C41.2788 33.1389 41.2923 33.1389 41.2923 33.1254Z" fill="#003B70"/>
<path d="M88.3389 81.8162L86.8564 80.4416L87.3416 79.5252C90.9668 72.6791 89.6461 64.081 84.1342 58.623C79.606 54.1353 73.0699 52.4642 67.0189 54.1084L77.6385 64.6201C80.0777 67.0324 80.0912 70.981 77.6789 73.4203L73.9055 77.2342C72.733 78.4201 71.1832 79.067 69.5121 79.0804H69.4851C67.841 79.0804 66.2777 78.4471 65.1053 77.2746L54.4857 66.7629C52.909 72.8273 54.6475 79.35 59.1756 83.8377C64.6875 89.2957 73.299 90.522 80.1047 86.8295L81.0211 86.3308L105.562 112.314C106.317 113.122 107.341 113.567 108.446 113.58C109.551 113.594 110.589 113.163 111.357 112.381L113.217 110.508C113.998 109.726 114.403 108.688 114.389 107.583C114.362 106.478 113.904 105.454 113.095 104.713L88.8375 82.2609L88.3389 81.8162Z" fill="#E6E6E6"/>
<path d="M90.1852 79.8486C91.8428 76.2638 92.4492 72.1939 91.8697 68.2722C92.4492 72.2074 91.8428 76.2773 90.1852 79.8486ZM116.828 105.858C116.882 106.074 116.936 106.29 116.977 106.519C116.936 106.29 116.896 106.074 116.828 105.858Z" fill="#003B70"/>
<path d="M116.976 106.519C116.936 106.303 116.882 106.074 116.828 105.858C116.788 105.71 116.747 105.562 116.693 105.414C116.33 104.403 115.737 103.487 114.928 102.732L90.6702 80.28L90.1986 79.8487C91.8562 76.264 92.4626 72.194 91.8831 68.2724C91.2363 63.852 89.2148 59.863 86.0343 56.7095C80.2259 50.9685 71.5874 49.23 64.0136 52.2892L62.1134 53.0573L75.7382 66.5339C76.412 67.1942 76.7759 68.0837 76.7894 69.027C76.7894 69.9704 76.4255 70.8599 75.7652 71.5202L71.9917 75.3341C71.3314 76.0079 70.4419 76.3718 69.4986 76.3852H69.4851C68.5552 76.3852 67.6658 76.0214 67.0054 75.361L53.3671 61.8845L52.6259 63.7981C49.6476 71.3989 51.4804 80.0239 57.2888 85.7649C60.4693 88.9185 64.4853 90.886 68.9056 91.4925C72.8408 92.0181 76.8972 91.3847 80.4685 89.6866L103.608 114.187C104.875 115.521 106.586 116.276 108.419 116.289H108.5C110.306 116.289 112.004 115.589 113.284 114.295L115.144 112.422C116.437 111.114 117.125 109.376 117.084 107.543C117.071 107.193 117.044 106.842 116.976 106.519ZM108.446 113.594C107.341 113.581 106.317 113.136 105.562 112.327L81.021 86.3444L80.1046 86.8431C73.299 90.5356 64.6874 89.3093 59.1755 83.8513C54.6474 79.3636 52.9089 72.8544 54.4857 66.7765L65.1052 77.2882C66.2777 78.4472 67.8275 79.094 69.4851 79.094H69.512C71.1697 79.0806 72.7329 78.4337 73.9054 77.2478L77.6788 73.4339C80.0911 70.9946 80.0777 67.046 77.6384 64.6337L67.0189 54.122C73.0699 52.4778 79.606 54.1489 84.1341 58.6366C89.646 64.0946 90.9667 72.6792 87.3415 79.5388L86.8564 80.4552L88.3388 81.8298L88.824 82.288L113.082 104.74C113.89 105.495 114.349 106.505 114.376 107.61C114.402 108.716 113.985 109.753 113.203 110.535L111.357 112.395C110.589 113.176 109.551 113.594 108.446 113.594Z" fill="#003B70"/>
<path d="M113.001 104.147C112.678 104.147 112.341 104.026 112.085 103.783L90.037 83.3796C89.4845 82.8675 89.4575 82.0184 89.9696 81.4794C90.4817 80.9268 91.3307 80.8999 91.8698 81.412L113.917 101.816C114.47 102.328 114.497 103.177 113.985 103.716C113.715 103.999 113.351 104.147 113.001 104.147Z" fill="#FF9B06"/>
</svg>
