<svg width="80" height="100" viewBox="0 0 80 100" fill="none" xmlns="http://www.w3.org/2000/svg">
<g clip-path="url(#clip0_10_63)">
<path d="M43.9868 21.3333H36.0148C35.5856 21.3325 35.1625 21.4338 34.7802 21.6287C34.3979 21.8237 34.0675 22.1068 33.8161 22.4546C33.5784 22.7796 33.4226 23.1571 33.3617 23.5552C33.3009 23.9532 33.337 24.3601 33.4668 24.7413C33.9378 26.0944 34.8217 27.2655 35.9939 28.0894C37.1661 28.9133 38.5674 29.3484 40.0001 29.3333C41.8068 29.336 43.5448 28.6415 44.8521 27.3946C45.612 26.6548 46.1874 25.7469 46.5321 24.7439C46.6626 24.3627 46.6991 23.9556 46.6385 23.5573C46.5779 23.1589 46.422 22.7811 46.1841 22.4559C45.9331 22.108 45.603 21.8247 45.2209 21.6295C44.8388 21.4343 44.4158 21.3327 43.9868 21.3333ZM43.0054 25.4666C42.1959 26.2392 41.1192 26.6691 40.0001 26.6666C39.1422 26.6844 38.2996 26.4381 37.5863 25.9611C36.873 25.4841 36.3235 24.7995 36.0121 23.9999H43.9681C43.7566 24.5524 43.4282 25.0528 43.0054 25.4666Z" fill="white"/>
<path d="M61.3334 29.3334V16.0001C61.3334 14.5856 60.7715 13.229 59.7713 12.2288C58.7711 11.2287 57.4146 10.6667 56.0001 10.6667H24.0001C22.5856 10.6667 21.229 11.2287 20.2288 12.2288C19.2287 13.229 18.6667 14.5856 18.6667 16.0001V29.3334C18.6667 30.7479 19.2287 32.1045 20.2288 33.1047C21.229 34.1048 22.5856 34.6668 24.0001 34.6668H56.0001C57.4146 34.6668 58.7711 34.1048 59.7713 33.1047C60.7715 32.1045 61.3334 30.7479 61.3334 29.3334ZM21.3334 29.3334V16.0001C21.3334 15.2928 21.6144 14.6146 22.1145 14.1145C22.6146 13.6144 23.2928 13.3334 24.0001 13.3334H56.0001C56.7073 13.3334 57.3856 13.6144 57.8857 14.1145C58.3858 14.6146 58.6667 15.2928 58.6667 16.0001V29.3334C58.6667 30.0407 58.3858 30.7189 57.8857 31.219C57.3856 31.7191 56.7073 32.0001 56.0001 32.0001H24.0001C23.2928 32.0001 22.6146 31.7191 22.1145 31.219C21.6144 30.7189 21.3334 30.0407 21.3334 29.3334Z" fill="white"/>
<path d="M28 16C27.2089 16 26.4355 16.2346 25.7777 16.6741C25.1199 17.1136 24.6072 17.7384 24.3045 18.4693C24.0017 19.2002 23.9225 20.0044 24.0769 20.7804C24.2312 21.5563 24.6122 22.269 25.1716 22.8284C25.731 23.3878 26.4437 23.7688 27.2196 23.9231C27.9956 24.0775 28.7998 23.9983 29.5307 23.6955C30.2616 23.3928 30.8864 22.8801 31.3259 22.2223C31.7654 21.5645 32 20.7911 32 20C32 18.9391 31.5786 17.9217 30.8284 17.1716C30.0783 16.4214 29.0609 16 28 16ZM28 21.3333C27.7363 21.3333 27.4785 21.2551 27.2592 21.1086C27.04 20.9621 26.8691 20.7539 26.7682 20.5102C26.6672 20.2666 26.6408 19.9985 26.6923 19.7399C26.7437 19.4812 26.8707 19.2437 27.0572 19.0572C27.2437 18.8707 27.4812 18.7437 27.7399 18.6923C27.9985 18.6408 28.2666 18.6672 28.5102 18.7682C28.7539 18.8691 28.9621 19.04 29.1086 19.2592C29.2551 19.4785 29.3333 19.7363 29.3333 20C29.3333 20.3536 29.1929 20.6928 28.9428 20.9428C28.6928 21.1929 28.3536 21.3333 28 21.3333Z" fill="white"/>
<path d="M52 16C51.2089 16 50.4355 16.2346 49.7777 16.6741C49.1199 17.1136 48.6072 17.7384 48.3045 18.4693C48.0017 19.2002 47.9225 20.0044 48.0769 20.7804C48.2312 21.5563 48.6122 22.269 49.1716 22.8284C49.731 23.3878 50.4437 23.7688 51.2196 23.9231C51.9956 24.0775 52.7998 23.9983 53.5307 23.6955C54.2616 23.3928 54.8864 22.8801 55.3259 22.2223C55.7654 21.5645 56 20.7911 56 20C56 18.9391 55.5786 17.9217 54.8284 17.1716C54.0783 16.4214 53.0609 16 52 16ZM52 21.3333C51.7363 21.3333 51.4785 21.2551 51.2592 21.1086C51.04 20.9621 50.8691 20.7539 50.7682 20.5102C50.6672 20.2666 50.6408 19.9985 50.6923 19.7399C50.7437 19.4812 50.8707 19.2437 51.0572 19.0572C51.2437 18.8707 51.4812 18.7437 51.7399 18.6923C51.9985 18.6408 52.2666 18.6672 52.5102 18.7682C52.7539 18.8691 52.9621 19.04 53.1086 19.2592C53.2551 19.4785 53.3333 19.7363 53.3333 20C53.3333 20.3536 53.1929 20.6928 52.9428 20.9428C52.6928 21.1929 52.3536 21.3333 52 21.3333Z" fill="white"/>
<path d="M69.8748 63.252L68.7628 57.168C69.9954 55.7203 70.6713 53.8805 70.669 51.9791C70.6668 50.0778 69.9865 48.2396 68.7504 46.7948C67.5144 45.35 65.8036 44.3935 63.9255 44.097C62.0474 43.8005 60.1251 44.1836 58.5041 45.1773C57.886 44.3976 57.1002 43.767 56.2051 43.3323C55.31 42.8977 54.3285 42.6702 53.3334 42.6667H49.3334V40H56.0001C58.4222 39.9957 60.7708 39.1682 62.6606 37.6532C64.5504 36.1382 65.869 34.0258 66.4001 31.6627C67.0084 31.9304 67.674 32.042 68.3363 31.9873C68.9987 31.9327 69.637 31.7135 70.1932 31.3497C70.7494 30.9859 71.206 30.489 71.5215 29.9041C71.8371 29.3191 72.0016 28.6646 72.0001 28V17.3333C72.0001 16.2725 71.5787 15.2551 70.8285 14.5049C70.0784 13.7548 69.061 13.3333 68.0001 13.3333C67.5448 13.3378 67.0938 13.4208 66.6668 13.5787V13.3333C66.6629 9.79831 65.2569 6.40918 62.7572 3.90953C60.2576 1.40989 56.8685 0.00388213 53.3334 0L26.6667 0C23.1317 0.00388213 19.7426 1.40989 17.2429 3.90953C14.7433 6.40918 13.3373 9.79831 13.3334 13.3333V13.5787C12.9064 13.4208 12.4553 13.3378 12.0001 13.3333C10.9392 13.3333 9.9218 13.7548 9.17165 14.5049C8.42151 15.2551 8.00008 16.2725 8.00008 17.3333V28C7.99861 28.6646 8.1631 29.3191 8.47863 29.9041C8.79417 30.489 9.25076 30.9859 9.80698 31.3497C10.3632 31.7135 11.0015 31.9327 11.6638 31.9873C12.3262 32.042 12.9918 31.9304 13.6001 31.6627C14.1311 34.0258 15.4498 36.1382 17.3395 37.6532C19.2293 39.1682 21.578 39.9957 24.0001 40H30.6667V42.6667H26.6667C25.6717 42.6702 24.6902 42.8977 23.7951 43.3323C22.9 43.767 22.1142 44.3976 21.4961 45.1773C19.8751 44.1836 17.9528 43.8005 16.0747 44.097C14.1966 44.3935 12.4858 45.35 11.2497 46.7948C10.0137 48.2396 9.3334 50.0778 9.33114 51.9791C9.32888 53.8805 10.0048 55.7203 11.2374 57.168L10.1254 63.252C9.09491 63.7338 8.22261 64.4987 7.61024 65.4574C6.99786 66.4161 6.67065 67.5291 6.66675 68.6667V76C6.66675 77.0609 7.08818 78.0783 7.83832 78.8284C8.58847 79.5786 9.60588 80 10.6667 80H14.6667C15.7276 80 16.745 79.5786 17.4952 78.8284C18.2453 78.0783 18.6667 77.0609 18.6667 76V68.6667C18.6609 67.6085 18.3718 66.5713 17.8294 65.6627L18.8881 59.8347C19.2655 59.7632 19.6371 59.6643 20.0001 59.5387V60C20.0001 65.3043 22.1072 70.3914 25.8579 74.1421C29.6087 77.8929 34.6958 80 40.0001 80C45.3044 80 50.3915 77.8929 54.1422 74.1421C57.8929 70.3914 60.0001 65.3043 60.0001 60V59.5387C60.3631 59.6643 60.7347 59.7632 61.1121 59.8347L62.1707 65.6627C61.6284 66.5713 61.3392 67.6085 61.3334 68.6667V76C61.3334 77.0609 61.7548 78.0783 62.505 78.8284C63.2551 79.5786 64.2726 80 65.3334 80H69.3334C70.3943 80 71.4117 79.5786 72.1618 78.8284C72.912 78.0783 73.3334 77.0609 73.3334 76V68.6667C73.3295 67.5291 73.0023 66.4161 72.3899 65.4574C71.7776 64.4987 70.9053 63.7338 69.8748 63.252ZM64.4761 63.424L63.8374 59.904C64.7332 59.7734 65.6 59.4902 66.4001 59.0667L67.0668 62.692C66.1585 62.734 65.272 62.9844 64.4761 63.424ZM68.0001 16C68.3537 16 68.6928 16.1405 68.9429 16.3905C69.1929 16.6406 69.3334 16.9797 69.3334 17.3333V28C69.3334 28.3536 69.1929 28.6928 68.9429 28.9428C68.6928 29.1929 68.3537 29.3333 68.0001 29.3333C67.6465 29.3333 67.3073 29.1929 67.0573 28.9428C66.8072 28.6928 66.6668 28.3536 66.6668 28V17.3333C66.6668 16.9797 66.8072 16.6406 67.0573 16.3905C67.3073 16.1405 67.6465 16 68.0001 16ZM12.0001 29.3333C11.6465 29.3333 11.3073 29.1929 11.0573 28.9428C10.8072 28.6928 10.6667 28.3536 10.6667 28V17.3333C10.6667 16.9797 10.8072 16.6406 11.0573 16.3905C11.3073 16.1405 11.6465 16 12.0001 16C12.3537 16 12.6928 16.1405 12.9429 16.3905C13.1929 16.6406 13.3334 16.9797 13.3334 17.3333V28C13.3334 28.3536 13.1929 28.6928 12.9429 28.9428C12.6928 29.1929 12.3537 29.3333 12.0001 29.3333ZM16.0001 29.3333V13.3333C16.0033 10.5053 17.1281 7.79407 19.1278 5.79437C21.1275 3.79467 23.8387 2.66984 26.6667 2.66667H53.3334C56.1614 2.66984 58.8727 3.79467 60.8724 5.79437C62.8721 7.79407 63.9969 10.5053 64.0001 13.3333V29.3333C63.998 31.4544 63.1544 33.488 61.6546 34.9879C60.1548 36.4877 58.1212 37.3312 56.0001 37.3333H24.0001C21.879 37.3312 19.8454 36.4877 18.3456 34.9879C16.8457 33.488 16.0022 31.4544 16.0001 29.3333ZM33.3334 40H46.6668V42.6667H33.3334V40ZM12.9334 62.6947L13.6001 59.0693C14.4003 59.492 15.2671 59.7743 16.1627 59.904L15.5241 63.424C14.7279 62.9854 13.8415 62.7358 12.9334 62.6947ZM16.0001 76C16.0001 76.3536 15.8596 76.6928 15.6096 76.9428C15.3595 77.1929 15.0204 77.3333 14.6667 77.3333H10.6667C10.3131 77.3333 9.97399 77.1929 9.72394 76.9428C9.47389 76.6928 9.33342 76.3536 9.33342 76V68.6667C9.33342 67.7826 9.6846 66.9348 10.3097 66.3096C10.9348 65.6845 11.7827 65.3333 12.6667 65.3333C13.5508 65.3333 14.3987 65.6845 15.0238 66.3096C15.6489 66.9348 16.0001 67.7826 16.0001 68.6667V76ZM17.3334 57.3333C15.9189 57.3333 14.5624 56.7714 13.5622 55.7712C12.562 54.771 12.0001 53.4145 12.0001 52C12.0001 50.5855 12.562 49.229 13.5622 48.2288C14.5624 47.2286 15.9189 46.6667 17.3334 46.6667C18.3786 46.6695 19.3994 46.9822 20.2667 47.5653C20.0977 48.1398 20.008 48.7346 20.0001 49.3333V56.6067C19.1922 57.0831 18.2713 57.3341 17.3334 57.3333ZM57.3334 60C57.3334 64.5971 55.5072 69.0059 52.2566 72.2565C49.006 75.5072 44.5972 77.3333 40.0001 77.3333C35.403 77.3333 30.9942 75.5072 27.7436 72.2565C24.4929 69.0059 22.6667 64.5971 22.6667 60V49.3333C22.6667 48.2725 23.0882 47.2551 23.8383 46.5049C24.5885 45.7548 25.6059 45.3333 26.6667 45.3333H53.3334C54.3943 45.3333 55.4117 45.7548 56.1618 46.5049C56.912 47.2551 57.3334 48.2725 57.3334 49.3333V60ZM59.7334 47.5653C60.6008 46.9822 61.6216 46.6695 62.6668 46.6667C64.0812 46.6667 65.4378 47.2286 66.438 48.2288C67.4382 49.229 68.0001 50.5855 68.0001 52C68.0001 53.4145 67.4382 54.771 66.438 55.7712C65.4378 56.7714 64.0812 57.3333 62.6668 57.3333C61.7289 57.3341 60.808 57.0831 60.0001 56.6067V49.3333C59.9922 48.7346 59.9025 48.1398 59.7334 47.5653ZM70.6668 76C70.6668 76.3536 70.5263 76.6928 70.2762 76.9428C70.0262 77.1929 69.687 77.3333 69.3334 77.3333H65.3334C64.9798 77.3333 64.6407 77.1929 64.3906 76.9428C64.1406 76.6928 64.0001 76.3536 64.0001 76V68.6667C64.0001 67.7826 64.3513 66.9348 64.9764 66.3096C65.6015 65.6845 66.4494 65.3333 67.3334 65.3333C68.2175 65.3333 69.0653 65.6845 69.6904 66.3096C70.3156 66.9348 70.6668 67.7826 70.6668 68.6667V76Z" fill="white"/>
<path d="M45.3334 49.3333H34.6667C33.6059 49.3333 32.5885 49.7547 31.8383 50.5048C31.0882 51.255 30.6667 52.2724 30.6667 53.3333V63.9999C30.6667 65.0608 31.0882 66.0782 31.8383 66.8283C32.5885 67.5785 33.6059 67.9999 34.6667 67.9999H45.3334C46.3943 67.9999 47.4117 67.5785 48.1618 66.8283C48.912 66.0782 49.3334 65.0608 49.3334 63.9999V53.3333C49.3334 52.2724 48.912 51.255 48.1618 50.5048C47.4117 49.7547 46.3943 49.3333 45.3334 49.3333ZM46.6667 63.9999C46.6667 64.3535 46.5263 64.6927 46.2762 64.9427C46.0262 65.1928 45.687 65.3333 45.3334 65.3333H34.6667C34.3131 65.3333 33.974 65.1928 33.7239 64.9427C33.4739 64.6927 33.3334 64.3535 33.3334 63.9999V53.3333C33.3334 52.9796 33.4739 52.6405 33.7239 52.3904C33.974 52.1404 34.3131 51.9999 34.6667 51.9999H45.3334C45.687 51.9999 46.0262 52.1404 46.2762 52.3904C46.5263 52.6405 46.6667 52.9796 46.6667 53.3333V63.9999Z" fill="white"/>
<path d="M38.6666 7.99992H41.3333C41.6869 7.99992 42.026 7.85944 42.2761 7.60939C42.5261 7.35935 42.6666 7.02021 42.6666 6.66659C42.6666 6.31296 42.5261 5.97383 42.2761 5.72378C42.026 5.47373 41.6869 5.33325 41.3333 5.33325H38.6666C38.313 5.33325 37.9738 5.47373 37.7238 5.72378C37.4737 5.97383 37.3333 6.31296 37.3333 6.66659C37.3333 7.02021 37.4737 7.35935 37.7238 7.60939C37.9738 7.85944 38.313 7.99992 38.6666 7.99992Z" fill="white"/>
</g>
<defs>
<clipPath id="clip0_10_63">
<rect width="80" height="100" fill="white"/>
</clipPath>
</defs>
</svg>
