<svg width="124" height="155" viewBox="0 0 124 155" fill="none" xmlns="http://www.w3.org/2000/svg">
<g clip-path="url(#clip0_8_213)">
<path d="M68.1794 33.0667H55.8228C55.1576 33.0655 54.5017 33.2224 53.9092 33.5246C53.3166 33.8268 52.8044 34.2656 52.4148 34.8047C52.0464 35.3085 51.8048 35.8937 51.7106 36.5107C51.6163 37.1276 51.6721 37.7582 51.8734 38.3491C52.6034 40.4464 53.9735 42.2617 55.7904 43.5387C57.6074 44.8157 59.7794 45.4901 62 45.4667C64.8003 45.4709 67.4943 44.3945 69.5206 42.4617C70.6984 41.315 71.5904 39.9077 72.1246 38.3532C72.3268 37.7623 72.3834 37.1313 72.2895 36.5139C72.1956 35.8965 71.954 35.3108 71.5852 34.8068C71.1962 34.2674 70.6844 33.8284 70.0922 33.5258C69.5 33.2232 68.8444 33.0659 68.1794 33.0667ZM66.6583 39.4733C65.4035 40.6709 63.7346 41.3373 62 41.3333C60.6703 41.3609 59.3642 40.9791 58.2586 40.2398C57.153 39.5005 56.3012 38.4394 55.8186 37.2H68.1504C67.8226 38.0564 67.3136 38.8319 66.6583 39.4733Z" fill="black"/>
<path d="M95.0667 45.4668V24.8001C95.0667 22.6077 94.1957 20.505 92.6454 18.9547C91.0951 17.4044 88.9925 16.5334 86.8 16.5334H37.2C35.0076 16.5334 32.9049 17.4044 31.3546 18.9547C29.8043 20.505 28.9333 22.6077 28.9333 24.8001V45.4668C28.9333 47.6592 29.8043 49.7619 31.3546 51.3122C32.9049 52.8625 35.0076 53.7335 37.2 53.7335H86.8C88.9925 53.7335 91.0951 52.8625 92.6454 51.3122C94.1957 49.7619 95.0667 47.6592 95.0667 45.4668ZM33.0667 45.4668V24.8001C33.0667 23.7039 33.5022 22.6526 34.2773 21.8774C35.0525 21.1023 36.1038 20.6668 37.2 20.6668H86.8C87.8962 20.6668 88.9476 21.1023 89.7227 21.8774C90.4979 22.6526 90.9333 23.7039 90.9333 24.8001V45.4668C90.9333 46.563 90.4979 47.6143 89.7227 48.3895C88.9476 49.1646 87.8962 49.6001 86.8 49.6001H37.2C36.1038 49.6001 35.0525 49.1646 34.2773 48.3895C33.5022 47.6143 33.0667 46.563 33.0667 45.4668Z" fill="black"/>
<path d="M43.4 24.8C42.1737 24.8 40.975 25.1637 39.9554 25.8449C38.9358 26.5262 38.1412 27.4945 37.6719 28.6274C37.2026 29.7603 37.0799 31.0069 37.3191 32.2096C37.5583 33.4123 38.1488 34.517 39.0159 35.3841C39.883 36.2512 40.9877 36.8417 42.1904 37.0809C43.3931 37.3201 44.6397 37.1974 45.7726 36.7281C46.9055 36.2588 47.8738 35.4642 48.5551 34.4446C49.2363 33.425 49.6 32.2263 49.6 31C49.6 29.3557 48.9467 27.7787 47.784 26.616C46.6213 25.4533 45.0443 24.8 43.4 24.8ZM43.4 33.0667C42.9912 33.0667 42.5916 32.9455 42.2518 32.7184C41.9119 32.4913 41.647 32.1686 41.4906 31.7909C41.3342 31.4133 41.2933 30.9978 41.373 30.5969C41.4527 30.196 41.6496 29.8277 41.9386 29.5387C42.2276 29.2497 42.5959 29.0528 42.9968 28.9731C43.3977 28.8934 43.8132 28.9343 44.1908 29.0907C44.5685 29.2471 44.8912 29.512 45.1183 29.8519C45.3454 30.1917 45.4666 30.5913 45.4666 31C45.4666 31.5482 45.2489 32.0738 44.8613 32.4614C44.4737 32.849 43.9481 33.0667 43.4 33.0667Z" fill="black"/>
<path d="M80.5999 24.8C79.3737 24.8 78.175 25.1637 77.1554 25.8449C76.1358 26.5262 75.3411 27.4945 74.8719 28.6274C74.4026 29.7603 74.2798 31.0069 74.519 32.2096C74.7583 33.4123 75.3488 34.517 76.2158 35.3841C77.0829 36.2512 78.1877 36.8417 79.3903 37.0809C80.593 37.3201 81.8396 37.1974 82.9725 36.7281C84.1054 36.2588 85.0737 35.4642 85.755 34.4446C86.4363 33.425 86.7999 32.2263 86.7999 31C86.7999 29.3557 86.1467 27.7787 84.984 26.616C83.8212 25.4533 82.2442 24.8 80.5999 24.8ZM80.5999 33.0667C80.1912 33.0667 79.7916 32.9455 79.4517 32.7184C79.1119 32.4913 78.847 32.1686 78.6906 31.7909C78.5341 31.4133 78.4932 30.9978 78.5729 30.5969C78.6527 30.196 78.8495 29.8277 79.1385 29.5387C79.4276 29.2497 79.7958 29.0528 80.1967 28.9731C80.5976 28.8934 81.0131 28.9343 81.3908 29.0907C81.7684 29.2471 82.0912 29.512 82.3183 29.8519C82.5454 30.1917 82.6666 30.5913 82.6666 31C82.6666 31.5482 82.4488 32.0738 82.0613 32.4614C81.6737 32.849 81.148 33.0667 80.5999 33.0667Z" fill="black"/>
<path d="M108.306 98.0406L106.582 88.6104C108.493 86.3665 109.54 83.5148 109.537 80.5677C109.533 77.6206 108.479 74.7713 106.563 72.5319C104.647 70.2926 101.995 68.8099 99.0843 68.3504C96.1732 67.8908 93.1937 68.4846 90.6811 70.0249C89.723 68.8162 88.5051 67.8388 87.1177 67.1651C85.7302 66.4914 84.2089 66.1388 82.6666 66.1333H76.4666V62H86.7999C90.5541 61.9934 94.1946 60.7107 97.1238 58.3625C100.053 56.0143 102.097 52.74 102.92 49.0771C103.863 49.4921 104.894 49.6651 105.921 49.5804C106.948 49.4957 107.937 49.156 108.799 48.5921C109.661 48.0282 110.369 47.258 110.858 46.3513C111.347 45.4446 111.602 44.4302 111.6 43.4V26.8667C111.6 25.2223 110.947 23.6453 109.784 22.4826C108.621 21.3199 107.044 20.6667 105.4 20.6667C104.694 20.6735 103.995 20.8022 103.333 21.0469V20.6667C103.327 15.1874 101.148 9.93422 97.2735 6.05977C93.399 2.18532 88.1459 0.0060173 82.6666 0L41.3333 0C35.854 0.0060173 30.6008 2.18532 26.7264 6.05977C22.8519 9.93422 20.6726 15.1874 20.6666 20.6667V21.0469C20.0047 20.8022 19.3056 20.6735 18.5999 20.6667C16.9556 20.6667 15.3786 21.3199 14.2159 22.4826C13.0531 23.6453 12.3999 25.2223 12.3999 26.8667V43.4C12.3976 44.4302 12.6526 45.4446 13.1417 46.3513C13.6308 47.258 14.3385 48.0282 15.2006 48.5921C16.0628 49.156 17.0521 49.4957 18.0787 49.5804C19.1054 49.6651 20.137 49.4921 21.0799 49.0771C21.903 52.74 23.9469 56.0143 26.8761 58.3625C29.8053 60.7107 33.4457 61.9934 37.1999 62H47.5333V66.1333H41.3333C39.7909 66.1388 38.2696 66.4914 36.8822 67.1651C35.4948 67.8388 34.2768 68.8162 33.3187 70.0249C30.8062 68.4846 27.8267 67.8908 24.9156 68.3504C22.0045 68.8099 19.3528 70.2926 17.4369 72.5319C15.521 74.7713 14.4666 77.6206 14.4631 80.5677C14.4596 83.5148 15.5072 86.3665 17.4178 88.6104L15.6942 98.0406C14.0969 98.7874 12.7448 99.973 11.7957 101.459C10.8465 102.945 10.3393 104.67 10.3333 106.433V117.8C10.3333 119.444 10.9865 121.021 12.1492 122.184C13.3119 123.347 14.8889 124 16.5333 124H22.7333C24.3776 124 25.9546 123.347 27.1173 122.184C28.28 121.021 28.9333 119.444 28.9333 117.8V106.433C28.9242 104.793 28.4761 103.185 27.6354 101.777L29.2763 92.7438C29.8613 92.633 30.4373 92.4796 30.9999 92.285V93C30.9999 101.222 34.266 109.107 40.0796 114.92C45.8932 120.734 53.7782 124 61.9999 124C70.2216 124 78.1066 120.734 83.9202 114.92C89.7339 109.107 92.9999 101.222 92.9999 93V92.285C93.5625 92.4796 94.1386 92.633 94.7235 92.7438L96.3645 101.777C95.5238 103.185 95.0756 104.793 95.0666 106.433V117.8C95.0666 119.444 95.7198 121.021 96.8825 122.184C98.0453 123.347 99.6223 124 101.267 124H107.467C109.111 124 110.688 123.347 111.851 122.184C113.013 121.021 113.667 119.444 113.667 117.8V106.433C113.661 104.67 113.153 102.945 112.204 101.459C111.255 99.973 109.903 98.7874 108.306 98.0406ZM99.9377 98.3072L98.9478 92.8512C100.336 92.6488 101.68 92.2098 102.92 91.5533L103.953 97.1726C102.545 97.2376 101.171 97.6259 99.9377 98.3072ZM105.4 24.8C105.948 24.8 106.474 25.0177 106.861 25.4053C107.249 25.7929 107.467 26.3186 107.467 26.8667V43.4C107.467 43.9481 107.249 44.4738 106.861 44.8614C106.474 45.2489 105.948 45.4667 105.4 45.4667C104.852 45.4667 104.326 45.2489 103.939 44.8614C103.551 44.4738 103.333 43.9481 103.333 43.4V26.8667C103.333 26.3186 103.551 25.7929 103.939 25.4053C104.326 25.0177 104.852 24.8 105.4 24.8ZM18.5999 45.4667C18.0518 45.4667 17.5261 45.2489 17.1386 44.8614C16.751 44.4738 16.5333 43.9481 16.5333 43.4V26.8667C16.5333 26.3186 16.751 25.7929 17.1386 25.4053C17.5261 25.0177 18.0518 24.8 18.5999 24.8C19.148 24.8 19.6737 25.0177 20.0613 25.4053C20.4488 25.7929 20.6666 26.3186 20.6666 26.8667V43.4C20.6666 43.9481 20.4488 44.4738 20.0613 44.8614C19.6737 45.2489 19.148 45.4667 18.5999 45.4667ZM24.7999 45.4667V20.6667C24.8048 16.2833 26.5483 12.0808 29.6479 8.98127C32.7474 5.88174 36.9499 4.13826 41.3333 4.13333H82.6666C87.05 4.13826 91.2525 5.88174 94.352 8.98127C97.4515 12.0808 99.195 16.2833 99.1999 20.6667V45.4667C99.1966 48.7543 97.8892 51.9064 95.5644 54.2312C93.2397 56.5559 90.0876 57.8634 86.7999 57.8667H37.1999C33.9122 57.8634 30.7602 56.5559 28.4354 54.2312C26.1107 51.9064 24.8032 48.7543 24.7999 45.4667ZM51.6666 62H72.3333V66.1333H51.6666V62ZM20.0466 97.1768L21.0799 91.5575C22.3203 92.2125 23.6638 92.6501 25.0521 92.8512L24.0621 98.3072C22.8281 97.6273 21.4541 97.2405 20.0466 97.1768ZM24.7999 117.8C24.7999 118.348 24.5822 118.874 24.1946 119.261C23.807 119.649 23.2814 119.867 22.7333 119.867H16.5333C15.9851 119.867 15.4595 119.649 15.0719 119.261C14.6843 118.874 14.4666 118.348 14.4666 117.8V106.433C14.4666 105.063 15.0109 103.749 15.9799 102.78C16.9488 101.811 18.263 101.267 19.6333 101.267C21.0035 101.267 22.3177 101.811 23.2866 102.78C24.2556 103.749 24.7999 105.063 24.7999 106.433V117.8ZM26.8666 88.8667C24.6741 88.8667 22.5715 87.9957 21.0212 86.4454C19.4709 84.8951 18.5999 82.7925 18.5999 80.6C18.5999 78.4076 19.4709 76.3049 21.0212 74.7546C22.5715 73.2043 24.6741 72.3333 26.8666 72.3333C28.4866 72.3377 30.0689 72.8224 31.4133 73.7263C31.1513 74.6166 31.0122 75.5387 30.9999 76.4667V87.7403C29.7477 88.4788 28.3203 88.8678 26.8666 88.8667ZM88.8666 93C88.8666 100.126 86.036 106.959 80.9975 111.998C75.9591 117.036 69.1254 119.867 61.9999 119.867C54.8744 119.867 48.0408 117.036 43.0023 111.998C37.9638 106.959 35.1333 100.126 35.1333 93V76.4667C35.1333 74.8223 35.7865 73.2453 36.9492 72.0826C38.1119 70.9199 39.6889 70.2667 41.3333 70.2667H82.6666C84.3109 70.2667 85.8879 70.9199 87.0507 72.0826C88.2134 73.2453 88.8666 74.8223 88.8666 76.4667V93ZM92.5866 73.7263C93.931 72.8224 95.5133 72.3377 97.1333 72.3333C99.3257 72.3333 101.428 73.2043 102.979 74.7546C104.529 76.3049 105.4 78.4076 105.4 80.6C105.4 82.7925 104.529 84.8951 102.979 86.4454C101.428 87.9957 99.3257 88.8667 97.1333 88.8667C95.6795 88.8678 94.2521 88.4788 92.9999 87.7403V76.4667C92.9877 75.5387 92.8486 74.6166 92.5866 73.7263ZM109.533 117.8C109.533 118.348 109.316 118.874 108.928 119.261C108.54 119.649 108.015 119.867 107.467 119.867H101.267C100.718 119.867 100.193 119.649 99.8052 119.261C99.4177 118.874 99.1999 118.348 99.1999 117.8V106.433C99.1999 105.063 99.7443 103.749 100.713 102.78C101.682 101.811 102.996 101.267 104.367 101.267C105.737 101.267 107.051 101.811 108.02 102.78C108.989 103.749 109.533 105.063 109.533 106.433V117.8Z" fill="black"/>
<path d="M70.2668 76.4666H53.7334C52.0891 76.4666 50.5121 77.1198 49.3494 78.2825C48.1867 79.4452 47.5334 81.0222 47.5334 82.6666V99.1999C47.5334 100.844 48.1867 102.421 49.3494 103.584C50.5121 104.747 52.0891 105.4 53.7334 105.4H70.2668C71.9111 105.4 73.4881 104.747 74.6508 103.584C75.8136 102.421 76.4668 100.844 76.4668 99.1999V82.6666C76.4668 81.0222 75.8136 79.4452 74.6508 78.2825C73.4881 77.1198 71.9111 76.4666 70.2668 76.4666ZM72.3335 99.1999C72.3335 99.748 72.1157 100.274 71.7281 100.661C71.3406 101.049 70.8149 101.267 70.2668 101.267H53.7334C53.1853 101.267 52.6597 101.049 52.2721 100.661C51.8845 100.274 51.6668 99.748 51.6668 99.1999V82.6666C51.6668 82.1184 51.8845 81.5928 52.2721 81.2052C52.6597 80.8176 53.1853 80.5999 53.7334 80.5999H70.2668C70.8149 80.5999 71.3406 80.8176 71.7281 81.2052C72.1157 81.5928 72.3335 82.1184 72.3335 82.6666V99.1999Z" fill="black"/>
<path d="M59.9334 12.3999H64.0667C64.6148 12.3999 65.1405 12.1822 65.5281 11.7946C65.9156 11.407 66.1334 10.8814 66.1334 10.3333C66.1334 9.78515 65.9156 9.25949 65.5281 8.87191C65.1405 8.48434 64.6148 8.2666 64.0667 8.2666H59.9334C59.3853 8.2666 58.8596 8.48434 58.472 8.87191C58.0844 9.25949 57.8667 9.78515 57.8667 10.3333C57.8667 10.8814 58.0844 11.407 58.472 11.7946C58.8596 12.1822 59.3853 12.3999 59.9334 12.3999Z" fill="black"/>
<path d="M124 17.825C126.48 15.965 127.617 14.9833 127.875 14.725L130.975 11.625" stroke="black"/>
</g>
<defs>
<clipPath id="clip0_8_213">
<rect width="124" height="155" fill="white"/>
</clipPath>
</defs>
</svg>
