<svg width="110" height="97" viewBox="0 0 110 97" fill="none" xmlns="http://www.w3.org/2000/svg">
<path d="M100.38 0H9.29687C4.17031 0 0 4.75546 0 10.6013V86.3252C0 92.1711 4.17031 96.9265 9.29687 96.9265H100.366C105.493 96.9265 109.663 92.1711 109.663 86.3252V10.6013C109.677 4.75546 105.506 0 100.38 0ZM104.364 86.3252C104.364 88.8241 102.571 90.8686 100.38 90.8686H9.29687C7.10547 90.8686 5.3125 88.8241 5.3125 86.3252V31.8192H104.351V86.3252H104.364ZM104.364 28.7902H5.32578V10.6013C5.32578 8.10245 7.11875 6.05791 9.31015 6.05791H100.38C102.571 6.05791 104.364 8.10245 104.364 10.6013V28.7902Z" fill="#003B70"/>
</svg>
