<svg width="159" height="159" viewBox="0 0 159 159" fill="none" xmlns="http://www.w3.org/2000/svg">
<path d="M43.5232 78.8634C43.5232 88.4216 47.3201 97.5882 54.0788 104.347C60.8374 111.105 70.004 114.902 79.5622 114.902C89.1203 114.902 98.2869 111.105 105.046 104.347C111.804 97.5882 115.601 88.4216 115.601 78.8634C115.601 69.3053 111.804 60.1386 105.046 53.38C98.2869 46.6214 89.1203 42.8245 79.5622 42.8245C70.004 42.8245 60.8374 46.6214 54.0788 53.38C47.3201 60.1386 43.5232 69.3053 43.5232 78.8634Z" fill="white"/>
<path d="M79.7795 135.849C78.9255 135.849 78.2268 135.166 78.2268 134.312C78.2268 133.458 78.91 132.759 79.764 132.743C80.2609 132.743 80.7733 132.728 81.2701 132.712C82.1241 132.681 82.8384 133.349 82.8694 134.218C82.9005 135.072 82.2328 135.787 81.3633 135.818C80.8664 135.833 80.323 135.849 79.7795 135.849C79.795 135.849 79.795 135.849 79.7795 135.849ZM73.5841 135.554C73.5375 135.554 73.4754 135.554 73.4133 135.538L71.8295 135.352C70.9755 135.243 70.3855 134.451 70.4942 133.613C70.6028 132.759 71.3947 132.169 72.2332 132.277C72.7301 132.34 73.227 132.402 73.7238 132.448C74.5778 132.541 75.1989 133.302 75.1058 134.156C75.0437 134.964 74.376 135.554 73.5841 135.554ZM87.5121 135.274C86.7513 135.274 86.0836 134.715 85.9749 133.939C85.8507 133.085 86.4407 132.309 87.2947 132.184L88.7854 131.951C89.6238 131.812 90.4313 132.371 90.5865 133.209C90.7418 134.048 90.1673 134.855 89.3288 135.01C88.8009 135.103 88.273 135.181 87.745 135.259C87.6674 135.274 87.5898 135.274 87.5121 135.274ZM65.9602 134.203C65.8359 134.203 65.7117 134.187 65.5875 134.156C65.0751 134.032 64.5627 133.892 64.0503 133.753C63.2274 133.52 62.746 132.666 62.9789 131.843C63.2118 131.02 64.0658 130.538 64.8888 130.771C65.3701 130.911 65.867 131.035 66.3484 131.159C67.1868 131.361 67.6837 132.215 67.4819 133.038C67.28 133.737 66.6434 134.203 65.9602 134.203ZM95.0895 133.613C94.4218 133.613 93.8007 133.178 93.5988 132.495C93.3504 131.672 93.8317 130.802 94.6547 130.569C95.136 130.43 95.6174 130.274 96.0987 130.119C96.9217 129.855 97.7912 130.305 98.0552 131.113C98.3192 131.936 97.8689 132.805 97.0614 133.069C96.5646 133.24 96.0366 133.395 95.5398 133.535C95.3845 133.597 95.2447 133.613 95.0895 133.613ZM58.5692 131.796C58.3673 131.796 58.181 131.765 57.9791 131.687C57.4822 131.486 56.9854 131.284 56.504 131.066C55.7121 130.725 55.355 129.809 55.7121 129.017C56.0537 128.225 56.9698 127.868 57.7617 128.225C58.2276 128.427 58.6934 128.629 59.1592 128.815C59.9511 129.141 60.3393 130.042 60.0132 130.833C59.7648 131.439 59.1903 131.796 58.5692 131.796ZM102.372 130.927C101.782 130.927 101.223 130.585 100.959 130.01C100.602 129.234 100.943 128.302 101.735 127.961C102.185 127.759 102.651 127.542 103.102 127.324C103.878 126.952 104.81 127.262 105.182 128.038C105.555 128.815 105.244 129.746 104.468 130.119C103.987 130.352 103.505 130.585 103.024 130.802C102.791 130.88 102.574 130.927 102.372 130.927ZM51.5974 128.38C51.3334 128.38 51.0694 128.318 50.821 128.163C50.3707 127.899 49.9049 127.619 49.4546 127.34C48.7248 126.889 48.4919 125.927 48.9577 125.197C49.408 124.467 50.3707 124.234 51.1005 124.7C51.5353 124.964 51.97 125.228 52.3893 125.476C53.1346 125.911 53.383 126.858 52.9483 127.604C52.6532 128.116 52.1408 128.38 51.5974 128.38ZM109.188 127.231C108.676 127.231 108.179 126.983 107.868 126.517C107.403 125.787 107.62 124.84 108.35 124.374C108.769 124.11 109.188 123.831 109.608 123.551C109.777 123.436 109.967 123.356 110.167 123.315C110.367 123.274 110.573 123.273 110.774 123.312C110.974 123.351 111.165 123.429 111.335 123.542C111.506 123.655 111.652 123.801 111.766 123.97C111.88 124.139 111.961 124.329 112.002 124.53C112.043 124.73 112.044 124.936 112.005 125.137C111.966 125.337 111.887 125.528 111.775 125.698C111.662 125.868 111.516 126.015 111.347 126.129C110.912 126.424 110.462 126.719 110.011 126.998C109.747 127.153 109.468 127.231 109.188 127.231ZM45.1846 124.032C44.843 124.032 44.5169 123.924 44.2219 123.706C43.8027 123.38 43.3834 123.039 42.9797 122.697C42.3276 122.154 42.2344 121.175 42.7778 120.508C43.3213 119.856 44.2995 119.762 44.9672 120.306C45.3554 120.632 45.7436 120.942 46.1473 121.253C46.815 121.781 46.9392 122.759 46.4112 123.427C46.1007 123.831 45.6349 124.032 45.1846 124.032ZM115.415 122.635C114.98 122.635 114.545 122.449 114.235 122.092C113.676 121.439 113.753 120.461 114.405 119.902C114.794 119.576 115.166 119.25 115.539 118.908C116.176 118.334 117.154 118.38 117.728 119.017C118.303 119.654 118.256 120.632 117.62 121.206C117.231 121.564 116.828 121.921 116.424 122.262C116.129 122.511 115.772 122.635 115.415 122.635ZM39.4239 118.831C39.0202 118.831 38.6165 118.676 38.306 118.349C37.9333 117.977 37.5762 117.573 37.2191 117.185C36.6445 116.548 36.6911 115.57 37.3278 114.996C37.9644 114.421 38.9426 114.468 39.5171 115.104C39.8587 115.477 40.2003 115.85 40.5419 116.207C41.132 116.828 41.1164 117.806 40.4953 118.396C40.2003 118.691 39.8121 118.831 39.4239 118.831ZM120.958 117.216C120.585 117.216 120.228 117.092 119.933 116.828C119.297 116.253 119.234 115.275 119.809 114.638C120.135 114.266 120.477 113.878 120.803 113.489C121.362 112.837 122.34 112.744 122.992 113.303C123.644 113.862 123.737 114.84 123.178 115.492C122.837 115.896 122.48 116.3 122.138 116.704C121.812 117.03 121.393 117.216 120.958 117.216ZM34.4552 112.884C33.9738 112.884 33.508 112.666 33.1975 112.247C32.8869 111.812 32.5764 111.378 32.2814 110.943C31.8 110.229 31.9708 109.266 32.6851 108.785C33.3993 108.303 34.362 108.474 34.8434 109.188C35.1229 109.608 35.4179 110.011 35.7129 110.415C36.2098 111.114 36.0545 112.076 35.3713 112.589C35.0918 112.791 34.7657 112.884 34.4552 112.884ZM125.709 111.067C125.414 111.067 125.119 110.989 124.855 110.803C124.141 110.322 123.955 109.359 124.421 108.645C124.7 108.226 124.98 107.806 125.244 107.372C125.694 106.642 126.657 106.424 127.386 106.875C128.116 107.325 128.334 108.288 127.883 109.017C127.604 109.468 127.309 109.918 127.014 110.353C126.703 110.834 126.206 111.067 125.709 111.067ZM30.3404 106.316C29.7815 106.316 29.2535 106.021 28.974 105.493C28.7256 105.027 28.4772 104.546 28.2443 104.08C27.8561 103.319 28.1821 102.387 28.943 101.999C29.7194 101.611 30.6355 101.937 31.0236 102.698C31.241 103.148 31.4739 103.598 31.7069 104.033C32.1106 104.794 31.8155 105.726 31.0702 106.129C30.8373 106.254 30.5889 106.316 30.3404 106.316ZM129.545 104.328C129.312 104.328 129.094 104.282 128.877 104.173C128.101 103.8 127.775 102.869 128.147 102.108C128.365 101.658 128.582 101.192 128.784 100.741C129.141 99.965 130.057 99.6079 130.833 99.9495C131.61 100.307 131.967 101.223 131.625 101.999C131.408 102.48 131.191 102.977 130.958 103.443C130.678 104.002 130.119 104.328 129.545 104.328ZM27.2039 99.2197C26.5673 99.2197 25.9773 98.8316 25.7444 98.1949C25.558 97.6981 25.3872 97.1857 25.2164 96.6888C24.9525 95.8814 25.3872 94.9963 26.2102 94.7323C27.0176 94.4684 27.9027 94.9031 28.1666 95.7261C28.3219 96.2074 28.4927 96.6888 28.6635 97.1546C28.9585 97.962 28.5393 98.8471 27.7319 99.1421C27.5611 99.2042 27.3747 99.2197 27.2039 99.2197ZM132.402 97.108C132.246 97.108 132.091 97.077 131.936 97.0304C131.113 96.7664 130.663 95.8969 130.927 95.0739C131.082 94.5926 131.222 94.1112 131.361 93.6299C131.594 92.8069 132.464 92.3256 133.287 92.5585C134.11 92.7914 134.591 93.6609 134.358 94.4839C134.218 94.9963 134.063 95.5087 133.892 96.0056C133.675 96.6888 133.069 97.108 132.402 97.108ZM25.0767 91.7666C24.3624 91.7666 23.7103 91.2697 23.555 90.54C23.4463 90.0275 23.3376 89.4996 23.2444 88.9717C23.0892 88.1332 23.6482 87.3258 24.5022 87.1705C25.3406 87.0153 26.1481 87.5742 26.3033 88.4282C26.3965 88.9251 26.4897 89.422 26.5984 89.9033C26.7692 90.7418 26.2412 91.5648 25.4028 91.7356C25.2941 91.7511 25.1854 91.7666 25.0767 91.7666ZM134.218 89.5773C134.141 89.5773 134.048 89.5773 133.954 89.5617C133.116 89.422 132.541 88.6146 132.681 87.7761L132.914 86.2855C133.038 85.4315 133.815 84.8414 134.669 84.9656C135.523 85.0899 136.113 85.8662 135.988 86.7202C135.911 87.2482 135.833 87.7761 135.74 88.304C135.631 89.0338 134.964 89.5773 134.218 89.5773ZM24.0208 84.0806C23.2134 84.0806 22.5302 83.4595 22.4681 82.6365C22.437 82.1086 22.406 81.5652 22.3904 81.0372C22.3594 80.1832 23.0271 79.4534 23.8811 79.4224C24.7351 79.3913 25.4649 80.059 25.4959 80.913C25.5114 81.4099 25.5425 81.9223 25.5736 82.4192C25.6357 83.2732 24.9835 84.0185 24.1295 84.0651C24.0829 84.0806 24.0519 84.0806 24.0208 84.0806ZM134.979 81.8602H134.933C134.079 81.8291 133.395 81.1304 133.426 80.2609C133.442 79.764 133.442 79.2516 133.442 78.7547C133.442 77.9007 134.141 77.202 134.995 77.202C135.849 77.202 136.547 77.9007 136.547 78.7547C136.547 79.2826 136.547 79.8261 136.532 80.354C136.501 81.1925 135.818 81.8602 134.979 81.8602ZM24.0363 76.3324H23.9277C23.0736 76.2703 22.4215 75.525 22.4836 74.671C22.5147 74.1431 22.5612 73.6152 22.6234 73.0872C22.701 72.2332 23.4618 71.6121 24.3158 71.6898C25.1698 71.7674 25.7909 72.5282 25.7133 73.3822C25.6667 73.8791 25.6201 74.3915 25.5891 74.8884C25.527 75.7113 24.8438 76.3324 24.0363 76.3324ZM134.669 74.3139C133.892 74.3139 133.209 73.7238 133.131 72.9319C133.085 72.4351 133.023 71.9382 132.945 71.4413C132.836 70.5873 133.426 69.811 134.28 69.6867C135.134 69.578 135.911 70.1681 136.035 71.0221C136.113 71.55 136.175 72.0779 136.221 72.6059C136.315 73.4599 135.693 74.2207 134.839 74.3139H134.669ZM25.1233 68.6464C25.0146 68.6464 24.9059 68.6309 24.7972 68.6153C23.9587 68.429 23.4308 67.6061 23.6016 66.7676C23.7103 66.2397 23.8345 65.7273 23.9587 65.2149C24.1606 64.3764 24.999 63.864 25.8375 64.0658C26.676 64.2677 27.1884 65.1062 26.9865 65.9446C26.8623 66.426 26.7536 66.9229 26.6449 67.4197C26.4741 68.1495 25.8375 68.6464 25.1233 68.6464ZM133.302 66.6744C132.604 66.6744 131.982 66.2086 131.796 65.4944C131.672 65.013 131.548 64.5161 131.408 64.0348C131.175 63.2118 131.656 62.3578 132.479 62.1249C133.302 61.892 134.156 62.3734 134.389 63.1963L134.808 64.7335C135.026 65.572 134.513 66.4105 133.675 66.6123C133.566 66.6589 133.442 66.6744 133.302 66.6744ZM27.266 61.1933C27.0952 61.1933 26.9089 61.1622 26.7381 61.1001C25.9307 60.8051 25.527 59.92 25.822 59.1126C26.0083 58.6157 26.1946 58.1189 26.3965 57.622C26.707 56.8301 27.6232 56.4419 28.4151 56.7525C29.2069 57.063 29.5951 57.9791 29.2846 58.771C29.0983 59.2368 28.9119 59.7182 28.7411 60.184C28.4927 60.8051 27.9027 61.1933 27.266 61.1933ZM130.896 59.3145C130.29 59.3145 129.7 58.9573 129.451 58.3518C129.265 57.886 129.063 57.4201 128.861 56.9698C128.52 56.1779 128.877 55.2618 129.653 54.9202C130.445 54.5786 131.361 54.9358 131.703 55.7121C131.92 56.1935 132.122 56.6903 132.324 57.1717C132.65 57.9636 132.262 58.8797 131.47 59.1903C131.284 59.2679 131.082 59.3145 130.896 59.3145ZM30.4491 54.1128C30.2007 54.1128 29.9523 54.0507 29.7194 53.9265C28.9585 53.5228 28.679 52.5756 29.0827 51.8303C29.3312 51.3645 29.5951 50.8831 29.8591 50.4328C30.2783 49.6875 31.241 49.4236 31.9708 49.8583C32.7161 50.2776 32.9801 51.2403 32.5453 51.97C32.2969 52.4048 32.0485 52.8551 31.8155 53.2899C31.536 53.8178 30.9926 54.1128 30.4491 54.1128ZM127.464 52.3582C126.936 52.3582 126.408 52.0787 126.129 51.5819C125.88 51.1471 125.616 50.7123 125.352 50.2931C124.902 49.5633 125.119 48.6006 125.849 48.1503C126.579 47.7 127.542 47.9174 127.992 48.6472C128.271 49.0975 128.551 49.5478 128.815 50.0136C129.25 50.7589 129.001 51.7061 128.256 52.1408C128.007 52.2961 127.728 52.3582 127.464 52.3582ZM34.5794 47.5447C34.2689 47.5447 33.9428 47.4516 33.6633 47.2497C32.9646 46.7373 32.8248 45.7746 33.3217 45.0759C33.6322 44.6411 33.9583 44.2219 34.2844 43.8027C34.8123 43.1194 35.7905 42.9952 36.4582 43.5232C37.1414 44.0511 37.2656 45.0293 36.7377 45.697C36.4272 46.0852 36.1321 46.4889 35.8371 46.9081C35.5266 47.3274 35.0608 47.5447 34.5794 47.5447ZM123.101 45.9454C122.635 45.9454 122.185 45.7436 121.874 45.3554C121.564 44.9672 121.253 44.5635 120.927 44.1908C120.384 43.5387 120.461 42.5605 121.129 42.0015C121.781 41.458 122.759 41.5357 123.318 42.2033C123.66 42.607 124.001 43.0263 124.327 43.4455C124.855 44.1132 124.747 45.0914 124.063 45.6193C123.784 45.8367 123.442 45.9454 123.101 45.9454ZM39.5792 41.6133C39.191 41.6133 38.8028 41.4736 38.4923 41.1785C37.8712 40.5885 37.8557 39.5947 38.4612 38.9892C38.8339 38.6165 39.2066 38.2283 39.5947 37.8557C40.2158 37.2501 41.1941 37.2656 41.7841 37.8867C42.3897 38.5078 42.3741 39.4861 41.753 40.0761L40.6817 41.1475C40.3866 41.458 39.9829 41.6133 39.5792 41.6133ZM117.884 40.2158C117.495 40.2158 117.107 40.0761 116.812 39.7811C116.455 39.4395 116.082 39.0823 115.71 38.7563C115.073 38.1818 115.027 37.2035 115.601 36.5669C116.176 35.9303 117.154 35.8837 117.79 36.4582C118.179 36.8153 118.582 37.188 118.955 37.5451C119.576 38.1352 119.592 39.1289 119.002 39.7345C118.707 40.045 118.303 40.2158 117.884 40.2158ZM45.3554 36.4427C44.8896 36.4427 44.4393 36.2408 44.1287 35.8371C43.6008 35.1539 43.725 34.1912 44.3927 33.6633C44.8119 33.3372 45.2312 33.0112 45.6659 32.7006C46.3647 32.1882 47.3274 32.3435 47.8398 33.0267C48.3522 33.7254 48.1969 34.6881 47.5137 35.2005C47.11 35.4955 46.7063 35.8061 46.3181 36.1166C46.0231 36.334 45.6815 36.4427 45.3554 36.4427ZM111.937 35.2471C111.626 35.2471 111.3 35.1539 111.036 34.9521C110.632 34.657 110.213 34.362 109.794 34.0825C109.08 33.6012 108.909 32.6385 109.39 31.9242C109.871 31.21 110.834 31.0392 111.548 31.5205C111.983 31.8155 112.434 32.1261 112.853 32.4366C113.551 32.9335 113.707 33.9117 113.21 34.6105C112.884 35.0142 112.418 35.2471 111.937 35.2471ZM51.7837 32.1106C51.2402 32.1106 50.7278 31.8311 50.4328 31.3342C49.9981 30.5889 50.262 29.6417 51.0073 29.207C51.4732 28.943 51.939 28.679 52.4048 28.4306C53.1656 28.0269 54.0973 28.3064 54.501 29.0672C54.9047 29.828 54.6252 30.7597 53.8644 31.1634C53.4296 31.3963 52.9793 31.6447 52.5445 31.8932C52.3116 32.0485 52.0477 32.1106 51.7837 32.1106ZM105.338 31.1479C105.089 31.1479 104.841 31.0858 104.608 30.9615C104.157 30.7286 103.707 30.4957 103.257 30.2783C102.48 29.9057 102.17 28.974 102.543 28.1977C102.915 27.4213 103.847 27.1108 104.623 27.4834C105.105 27.7163 105.57 27.9648 106.052 28.2132C106.813 28.6169 107.108 29.5486 106.704 30.3094C106.44 30.8528 105.896 31.1479 105.338 31.1479ZM58.7555 28.7411C58.1344 28.7411 57.5599 28.3685 57.3114 27.7629C56.9854 26.971 57.3736 26.0704 58.181 25.7444C58.6778 25.5425 59.1747 25.3562 59.6716 25.1698C60.479 24.8748 61.3641 25.2785 61.6591 26.086C61.9541 26.8934 61.5504 27.7784 60.743 28.0735C60.2772 28.2443 59.7958 28.4306 59.33 28.6169C59.1437 28.6945 58.9573 28.7411 58.7555 28.7411ZM98.2415 28.0113C98.0707 28.0113 97.8844 27.9803 97.7136 27.9182C97.2322 27.7474 96.7509 27.5766 96.2851 27.4213C95.4776 27.1573 95.0274 26.2723 95.2913 25.4649C95.5553 24.6574 96.4403 24.2071 97.2478 24.4711C97.7446 24.6419 98.257 24.8127 98.7694 24.999C99.5769 25.2941 99.9961 26.1791 99.7011 26.9865C99.4682 27.6232 98.8781 28.0113 98.2415 28.0113ZM66.1465 26.3499C65.4478 26.3499 64.8111 25.8686 64.6403 25.1698C64.4385 24.3314 64.9509 23.4929 65.7738 23.291C66.2862 23.1668 66.8142 23.0426 67.3266 22.9339C68.1651 22.7476 68.988 23.291 69.1743 24.1295C69.3607 24.968 68.8172 25.7909 67.9787 25.9773C67.4974 26.086 67.0005 26.1946 66.5036 26.3189C66.3949 26.3499 66.2552 26.3499 66.1465 26.3499ZM90.7729 25.9152C90.6642 25.9152 90.5555 25.8996 90.4623 25.8841C89.981 25.7754 89.4686 25.6822 88.9872 25.6046C88.1487 25.4493 87.5742 24.6419 87.7295 23.8034C87.8848 22.965 88.6922 22.3904 89.5307 22.5457C90.0586 22.6389 90.5865 22.7476 91.0989 22.8407C91.9374 23.0115 92.4809 23.8345 92.3101 24.673C92.1393 25.4027 91.4871 25.9152 90.7729 25.9152ZM73.786 25.0456C72.9941 25.0456 72.3264 24.4556 72.2487 23.6482C72.1556 22.7942 72.7767 22.0333 73.6307 21.9402L75.2145 21.8004C76.0685 21.7383 76.8138 22.3749 76.8759 23.2289C76.938 24.0829 76.3014 24.8282 75.4474 24.8903C74.9505 24.9214 74.4381 24.968 73.9412 25.0146C73.8791 25.0301 73.8325 25.0456 73.786 25.0456ZM83.0868 24.8748H82.9781C82.4813 24.8438 81.9689 24.8127 81.472 24.7972C80.618 24.7661 79.9503 24.0519 79.9814 23.1823C80.0124 22.3283 80.7267 21.6607 81.5962 21.6917C82.1241 21.7072 82.6676 21.7383 83.1955 21.7694C84.0495 21.8315 84.7017 22.5612 84.6396 23.4153C84.5775 24.2382 83.8942 24.8748 83.0868 24.8748Z" fill="#003B70"/>
<path d="M120.539 38.0264C118.225 38.0264 116.346 39.9052 116.346 42.2188C116.346 44.5323 118.225 46.4111 120.539 46.4111C122.852 46.4111 124.731 44.5323 124.731 42.2188C124.731 39.9052 122.852 38.0264 120.539 38.0264Z" fill="#E6E6E6"/>
<path d="M120.539 34.9209C116.517 34.9209 113.241 38.1972 113.241 42.2188C113.241 46.2403 116.517 49.5166 120.539 49.5166C124.56 49.5166 127.837 46.2403 127.837 42.2188C127.837 38.1972 124.56 34.9209 120.539 34.9209ZM116.331 42.2188C116.331 39.9052 118.21 38.0264 120.523 38.0264C122.837 38.0264 124.716 39.9052 124.716 42.2188C124.716 44.5323 122.837 46.4111 120.523 46.4111C118.21 46.4111 116.331 44.5323 116.331 42.2188Z" fill="#003B70"/>
<path d="M112.138 63.3516H46.7373C46.2559 64.3608 45.8211 65.4012 45.4485 66.457H113.443C113.055 65.4012 112.62 64.3608 112.138 63.3516Z" fill="#FF6F06"/>
<path d="M109.39 48.8023C101.394 40.8058 90.7574 36.396 79.4379 36.396C68.1185 36.396 57.4823 40.8058 49.4857 48.8023C41.4891 56.7989 37.0793 67.4352 37.0793 78.7546C37.0793 90.074 41.4891 100.71 49.4857 108.707C57.4823 116.703 68.1185 121.113 79.4379 121.113C90.7574 121.113 101.394 116.703 109.39 108.707C117.387 100.71 121.797 90.074 121.797 78.7546C121.797 67.4352 117.402 56.7989 109.39 48.8023ZM47.1411 94.9496H60.6654C60.8362 95.4465 61.0225 95.9434 61.2088 96.4402C62.9168 100.85 65.2925 105.073 68.2583 108.986C69.842 111.067 71.4103 112.837 72.8388 114.281C61.5815 112.2 52.1409 104.887 47.1411 94.9496ZM77.8852 114.778C76.0219 113.163 73.3202 110.555 70.6495 107.014C68.3669 103.987 65.8515 99.9339 63.9727 94.9341H77.8852V114.778ZM80.9907 114.778V94.9496H94.9032C93.0244 99.9339 90.5089 104.002 88.2264 107.03C85.5557 110.57 82.854 113.163 80.9907 114.778ZM86.0526 114.297C87.4811 112.837 89.0494 111.083 90.6332 109.002C93.6144 105.073 95.9901 100.866 97.6826 96.4558C97.8689 95.9589 98.0552 95.462 98.226 94.9651H111.75C106.751 104.887 97.3099 112.2 86.0526 114.297ZM113.132 91.8441H99.1887C100.322 87.7294 100.897 83.4749 100.897 79.1428C100.897 74.8417 100.322 70.5872 99.2043 66.4414H95.959C97.077 70.2611 97.7757 74.5001 97.7757 79.1428C97.7757 83.801 97.0615 88.0555 95.9435 91.8441H80.9907V66.4569H77.8852V91.8441H62.9324C61.8144 88.0555 61.1001 83.8165 61.1001 79.1428C61.1001 74.5156 61.8144 70.2611 62.9168 66.4414H59.6716C58.5537 70.5872 57.9791 74.8417 57.9791 79.1428C57.9791 83.4749 58.5537 87.7139 59.6872 91.8441H45.7436C44.1598 87.776 43.2903 83.3662 43.2903 78.7546C43.2903 74.438 44.0511 70.2922 45.4486 66.4569C45.8368 65.4011 46.2715 64.3607 46.7374 63.3515C51.6595 52.9481 61.4107 45.2466 73.0873 43.1659C71.5966 44.7342 69.9197 46.644 68.2427 48.9266C65.277 52.9637 62.9013 57.2803 61.1933 61.7366C60.9915 62.2645 60.8051 62.808 60.6188 63.3515H63.9261C65.8205 58.2274 68.3669 54.004 70.665 50.852C73.3357 47.2186 76.0219 44.5168 77.8852 42.8243V63.3515H80.9907V42.8243C82.854 44.5168 85.5402 47.2341 88.2109 50.852C90.5245 54.004 93.0709 58.2119 94.9498 63.3515H98.2571C98.0708 62.808 97.8844 62.2801 97.6826 61.7366C95.9746 57.2647 93.6144 52.9637 90.6332 48.9266C88.9717 46.644 87.2948 44.7187 85.8041 43.1659C97.4807 45.2466 107.232 52.9481 112.154 63.3515C112.635 64.3607 113.07 65.4011 113.443 66.4569C114.84 70.2922 115.601 74.438 115.601 78.7546C115.586 83.3662 114.716 87.7915 113.132 91.8441Z" fill="#003B70"/>
</svg>
