<svg width="142" height="142" viewBox="0 0 142 142" fill="none" xmlns="http://www.w3.org/2000/svg">
<path d="M95.2397 32.7128C95.2397 33.7683 95.6342 34.7806 96.3364 35.527C97.0385 36.2734 97.9909 36.6927 98.9839 36.6927C99.9769 36.6927 100.929 36.2734 101.631 35.527C102.334 34.7806 102.728 33.7683 102.728 32.7128C102.728 31.6573 102.334 30.645 101.631 29.8986C100.929 29.1522 99.9769 28.7329 98.9839 28.7329C97.9909 28.7329 97.0385 29.1522 96.3364 29.8986C95.6342 30.645 95.2397 31.6573 95.2397 32.7128Z" fill="#003B70"/>
<path d="M95.2397 63.9694C95.2397 65.0249 95.6342 66.0372 96.3364 66.7836C97.0385 67.53 97.9909 67.9493 98.9839 67.9493C99.9769 67.9493 100.929 67.53 101.631 66.7836C102.334 66.0372 102.728 65.0249 102.728 63.9694C102.728 62.9139 102.334 61.9016 101.631 61.1552C100.929 60.4088 99.9769 59.9895 98.9839 59.9895C97.9909 59.9895 97.0385 60.4088 96.3364 61.1552C95.6342 61.9016 95.2397 62.9139 95.2397 63.9694Z" fill="#003B70"/>
<path d="M107.374 25.0024H24.9888C22.7007 25.0024 20.8286 26.8745 20.8286 29.1626V36.2765C20.8286 38.5645 22.7007 40.4366 24.9888 40.4366H107.374C109.662 40.4366 111.534 38.5645 111.534 36.2765V29.1626C111.534 26.8606 109.662 25.0024 107.374 25.0024ZM61.9171 34.0993H28.719C27.9563 34.0993 27.3323 33.4753 27.3323 32.7126C27.3323 31.9499 27.9563 31.3259 28.719 31.3259H61.9171C62.6798 31.3259 63.3038 31.9499 63.3038 32.7126C63.3038 33.4753 62.6798 34.0993 61.9171 34.0993ZM98.9841 36.7063C96.9179 36.7063 95.2399 34.9175 95.2399 32.7265C95.2399 30.5354 96.9179 28.7466 98.9841 28.7466C101.05 28.7466 102.728 30.5354 102.728 32.7265C102.728 34.9175 101.05 36.7063 98.9841 36.7063ZM111.534 60.4054C111.534 58.1173 109.662 56.2452 107.374 56.2452H24.9888C22.7007 56.2452 20.8286 58.1173 20.8286 60.4054V67.5331C20.8286 69.8212 22.7007 71.6933 24.9888 71.6933H79.7226L84.2571 68.9198C85.0753 68.4206 86.0183 68.1433 86.989 68.1294H87.086C87.9735 68.1294 88.8749 68.3513 89.6653 68.7534C90.5112 69.1833 91.2323 69.8212 91.7593 70.5977L92.5081 71.6933H99.2753L99.8716 70.5284C100.204 69.8767 100.662 69.3081 101.244 68.8505C101.785 68.4067 102.409 68.0878 103.089 67.8936C103.588 67.7411 104.115 67.6718 104.628 67.6718C105.516 67.6718 106.403 67.8937 107.193 68.2958L110.66 70.0708C111.201 69.3636 111.52 68.4899 111.52 67.5331V60.4054H111.534ZM98.9841 67.9491C96.9179 67.9491 95.2399 66.1602 95.2399 63.9692C95.2399 61.7782 96.9179 59.9894 98.9841 59.9894C101.05 59.9894 102.728 61.7782 102.728 63.9692C102.728 66.1602 101.05 67.9491 98.9841 67.9491Z" fill="white"/>
<path d="M107.374 19.4556H24.9888C19.636 19.4556 15.2817 23.8099 15.2817 29.1626V36.2765C15.2817 41.6292 19.636 45.9835 24.9888 45.9835H107.374C112.726 45.9835 117.081 41.6292 117.081 36.2765V29.1626C117.081 23.8099 112.726 19.4556 107.374 19.4556ZM111.534 36.2765C111.534 38.5646 109.662 40.4366 107.374 40.4366H24.9888C22.7007 40.4366 20.8286 38.5646 20.8286 36.2765V29.1626C20.8286 26.8745 22.7007 25.0024 24.9888 25.0024H107.374C109.662 25.0024 111.534 26.8745 111.534 29.1626V36.2765Z" fill="#003B70"/>
<path d="M61.917 31.3259H28.719C27.9563 31.3259 27.3323 31.95 27.3323 32.7126C27.3323 33.4753 27.9563 34.0994 28.719 34.0994H61.917C62.6797 34.0994 63.3038 33.4753 63.3038 32.7126C63.3038 31.95 62.6797 31.3259 61.917 31.3259Z" fill="#003B70"/>
<path d="M69.9601 101.383C69.4054 100.579 69.0726 99.6635 69.0032 98.6928L68.5179 92.1336C68.4069 90.6914 68.8784 89.3186 69.8353 88.2646C70.0987 87.9734 70.3761 87.7238 70.6812 87.502H24.9888C22.7007 87.502 20.8286 89.374 20.8286 91.6621V98.776C20.8286 101.064 22.7007 102.936 24.9888 102.936H71.5964C70.9446 102.534 70.3899 102.007 69.9601 101.383Z" fill="#E6E6E6"/>
<path d="M79.0153 105.71C78.5854 105.072 78.1972 104.406 77.8366 103.727L74.7304 103.81H74.5917C73.7042 103.81 72.8167 103.602 72.0263 103.186C71.8737 103.116 71.7351 103.033 71.5964 102.936H24.9888C22.7007 102.936 20.8286 101.064 20.8286 98.7759V91.6621C20.8286 89.374 22.7007 87.5019 24.9888 87.5019H70.6812C70.9446 87.3078 71.2358 87.1414 71.5409 87.0027C72.2065 86.6976 72.9276 86.5312 73.6765 86.5173L76.6302 86.4341C76.6856 86.2816 76.7411 86.1429 76.7966 85.9904C77.0323 85.408 77.2819 84.8255 77.5731 84.2847C77.9198 83.6052 78.322 82.9257 78.7657 82.2601L78.5577 81.9412H24.9888C19.636 81.9412 15.2817 86.2955 15.2817 91.6482V98.7621C15.2817 104.115 19.636 108.469 24.9888 108.469H80.4159L80.6933 107.928C80.0831 107.235 79.5284 106.486 79.0153 105.71Z" fill="#003B70"/>
<path d="M106.764 91.7452C106.32 90.4972 105.654 89.3601 104.767 88.3616C104.489 88.0566 104.212 87.7792 103.907 87.5019C103.241 86.9195 102.506 86.4064 101.702 85.9903C100.537 85.3941 99.2892 85.0196 97.9995 84.881C96.6683 84.7423 95.3509 84.8532 94.0751 85.2277C93.4233 85.4218 92.8132 85.6714 92.2308 85.9903C91.6899 86.2816 91.163 86.6282 90.6915 87.0304C90.5112 87.1829 90.3448 87.3355 90.1784 87.5019C89.4712 88.1952 88.8888 88.9857 88.4311 89.8593C87.8765 90.9548 87.5436 92.1196 87.4604 93.3538C87.3634 94.6296 87.5437 95.9054 87.9735 97.1534C88.4173 98.4015 89.0829 99.5386 89.9704 100.537C90.8302 101.508 91.8702 102.298 93.0351 102.894C93.0628 102.908 93.0905 102.922 93.1321 102.936C94.2831 103.505 95.4895 103.865 96.7515 104.004C98.0827 104.142 99.4001 104.032 100.676 103.657C101.3 103.477 101.882 103.241 102.437 102.95C103.019 102.645 103.56 102.284 104.059 101.868C105.002 101.078 105.765 100.135 106.32 99.0394C106.875 97.9439 107.207 96.779 107.291 95.5448C107.374 94.2691 107.207 92.9933 106.764 91.7452Z" fill="white"/>
<path d="M121.546 90.7469C121.532 90.4695 121.324 90.2061 121.047 90.0535C120.908 89.9842 120.756 89.9426 120.603 89.9426L116.942 90.0396L114.39 90.109L114.293 89.8732L113.766 88.6668C113.545 88.1398 113.295 87.6406 113.018 87.1414C112.213 85.6992 111.215 84.368 110.036 83.1754L108.955 82.0799L108.844 81.9689L111.631 76.5469C111.686 76.4498 111.7 76.3389 111.686 76.2279C111.659 75.9783 111.465 75.7148 111.187 75.5623L105.086 72.4283C104.947 72.359 104.794 72.3174 104.642 72.3174C104.365 72.3174 104.129 72.4422 104.032 72.6363L101.674 77.2264L101.231 78.0723L99.5665 77.8088C98.6096 77.6562 97.6389 77.5869 96.6821 77.5869C95.4202 77.5869 94.1444 77.7256 92.9241 77.9891L91.3848 78.3219L90.6499 77.2402L87.9042 73.2188C87.8071 73.0801 87.6823 72.9691 87.5436 72.8998C87.4049 72.8305 87.2385 72.7889 87.086 72.7889C86.9335 72.7889 86.7948 72.8305 86.6838 72.8998L81.0676 76.3389C80.929 76.4221 80.8458 76.533 80.818 76.6855C80.7764 76.8658 80.818 77.0461 80.9428 77.2264L80.9706 77.2541L84.1877 81.9689L84.5067 82.4404L83.4389 83.7855C82.8704 84.5066 82.3711 85.2555 81.9413 86.0182C81.8581 86.1568 81.7887 86.2955 81.7194 86.4342C81.5391 86.7809 81.3727 87.1553 81.2202 87.5297C80.9706 88.126 80.7625 88.7361 80.5823 89.374L80.1247 91.0242L73.8151 91.1906C73.6071 91.1906 73.4268 91.2738 73.302 91.3986C73.2049 91.5096 73.1633 91.6482 73.1633 91.8008L73.6487 98.36C73.6625 98.6373 73.8706 98.9008 74.1479 99.0533C74.2866 99.1227 74.4391 99.1643 74.5917 99.1643L80.7903 98.9979L81.4143 100.44C81.7887 101.314 82.2463 102.146 82.7594 102.95C83.3973 103.935 84.1323 104.864 84.9504 105.723C85.0198 105.793 85.0891 105.862 85.1446 105.931L86.3372 107.124L85.6299 108.497L83.5499 112.56C83.4528 112.754 83.4944 112.948 83.536 113.059C83.6192 113.267 83.7717 113.434 83.9936 113.545L90.0952 116.679C90.2338 116.748 90.3864 116.789 90.5389 116.789C90.8163 116.789 91.052 116.665 91.1491 116.471L93.9364 111.035L95.6004 111.298C96.5573 111.451 97.528 111.52 98.4848 111.52C99.7467 111.52 101.023 111.381 102.243 111.118L103.782 110.785L107.263 115.888C107.36 116.027 107.485 116.138 107.623 116.207C107.762 116.276 107.928 116.318 108.081 116.318C108.233 116.318 108.372 116.276 108.483 116.207L114.099 112.768C114.238 112.685 114.321 112.574 114.349 112.421C114.39 112.199 114.307 112.005 114.224 111.88L111.326 107.623L110.674 106.653L111.673 105.404L111.742 105.321C112.421 104.475 112.99 103.588 113.461 102.673C113.78 102.063 114.058 101.397 114.293 100.717C114.404 100.398 114.515 100.066 114.598 99.7328L115.07 98.0826L117.067 98.0272L121.38 97.9162C121.588 97.9162 121.768 97.833 121.893 97.7082C121.99 97.5973 122.031 97.4586 122.031 97.3061L121.546 90.7469ZM91.7038 105.488C90.4002 104.822 89.2354 103.962 88.237 102.936C88.0844 102.784 87.9458 102.631 87.7932 102.465C86.6422 101.175 85.7825 99.7051 85.2139 98.0965C84.6454 96.474 84.4235 94.81 84.5344 93.132C84.6454 91.5096 85.0753 89.9564 85.8241 88.5143C86.0044 88.1537 86.1985 87.8209 86.4204 87.4881C86.767 86.9611 87.1553 86.448 87.5713 85.9766C87.9596 85.5467 88.3756 85.1445 88.8194 84.784C90.109 83.7162 91.5928 82.9258 93.243 82.4404C94.1444 82.177 95.0596 82.0106 95.9887 81.9412C96.5989 81.8996 97.209 81.8996 97.8331 81.9412L98.2907 81.9828C99.9409 82.1631 101.536 82.6346 103.019 83.3973C104.337 84.0768 105.515 84.9365 106.528 85.9904C106.666 86.1291 106.791 86.2678 106.93 86.4203C107.249 86.7809 107.54 87.1414 107.817 87.5297C108.539 88.5281 109.107 89.6236 109.509 90.7885C110.078 92.4109 110.3 94.075 110.189 95.7529C110.078 97.3754 109.648 98.9285 108.899 100.371C108.414 101.314 107.817 102.173 107.11 102.95C106.736 103.366 106.334 103.74 105.904 104.101C105.127 104.739 104.281 105.28 103.38 105.723C102.77 106.015 102.146 106.264 101.48 106.458C99.8438 106.944 98.1381 107.096 96.4325 106.916C94.9487 106.763 93.5204 106.361 92.1752 105.723C92.0227 105.64 91.8702 105.571 91.7038 105.488Z" fill="white"/>
<path d="M126.677 96.9595L126.192 90.4003C126.122 89.4435 125.789 88.5144 125.235 87.7101C124.708 86.9474 123.987 86.3233 123.168 85.9073C122.378 85.5052 121.491 85.2833 120.603 85.2833H120.464L117.358 85.3665C116.568 83.8688 115.611 82.4544 114.501 81.1509L115.777 78.6686C116.11 78.0169 116.304 77.3097 116.346 76.5747C116.387 75.8813 116.276 75.188 116.041 74.5224C115.86 74.0231 115.611 73.5517 115.306 73.1218C116.429 71.5409 117.081 69.6134 117.081 67.5333V60.4194C117.081 55.0667 112.726 50.7124 107.374 50.7124H24.9888C19.636 50.7124 15.2817 55.0667 15.2817 60.4194V67.5333C15.2817 72.886 19.636 77.2403 24.9888 77.2403H76.1726C76.1864 77.4345 76.2142 77.6147 76.2558 77.8089C76.3944 78.53 76.6856 79.2095 77.1017 79.8196L78.5577 81.9552L78.7657 82.2741C78.322 82.9397 77.9198 83.6054 77.5731 84.2987C77.2958 84.8396 77.0323 85.422 76.7966 86.0044C76.7411 86.1569 76.6856 86.2956 76.6302 86.4481L73.6765 86.5313C72.9276 86.5452 72.2065 86.7116 71.5409 87.0167C71.2358 87.1554 70.9446 87.3218 70.6812 87.5159C70.3761 87.7378 70.0849 87.9874 69.8353 88.2786C68.8784 89.3464 68.4069 90.7192 68.5179 92.1476L69.0032 98.7067C69.0726 99.6636 69.4054 100.593 69.9601 101.397C70.3899 102.021 70.9585 102.548 71.5964 102.964C71.7351 103.047 71.8737 103.13 72.0263 103.214C72.8167 103.616 73.7042 103.838 74.5917 103.838H74.7304L77.8366 103.754C78.1972 104.434 78.5854 105.1 79.0153 105.737C79.5284 106.514 80.0831 107.249 80.6933 107.97L80.4159 108.511L79.4175 110.452C79.0847 111.104 78.8905 111.811 78.8489 112.546C78.8073 113.24 78.9183 113.933 79.154 114.599C79.6255 115.944 80.5962 117.039 81.8858 117.705L87.9874 120.839C88.7917 121.241 89.6792 121.463 90.5528 121.463C91.0798 121.463 91.5929 121.393 92.0921 121.241C92.7716 121.047 93.3956 120.714 93.9364 120.284C94.505 119.826 94.9765 119.258 95.3093 118.606L96.5851 116.124C97.2229 116.179 97.8608 116.207 98.4987 116.207C99.5665 116.207 100.62 116.138 101.674 115.985L103.422 118.551C103.949 119.327 104.67 119.965 105.516 120.395C106.306 120.797 107.207 121.019 108.095 121.019H108.192C109.163 121.005 110.106 120.728 110.924 120.229L116.54 116.79C117.774 116.041 118.606 114.848 118.911 113.448C119.064 112.754 119.064 112.033 118.925 111.326C118.786 110.605 118.495 109.925 118.079 109.315L116.415 106.875C116.859 106.209 117.261 105.543 117.608 104.85C117.954 104.17 118.273 103.449 118.551 102.7L121.504 102.617C122.253 102.603 122.974 102.437 123.64 102.132C124.292 101.827 124.874 101.411 125.346 100.884C126.316 99.7745 126.788 98.4017 126.677 96.9595ZM20.8286 67.5333V60.4194C20.8286 58.1313 22.7007 56.2593 24.9888 56.2593H107.374C109.662 56.2593 111.534 58.1313 111.534 60.4194V67.5333C111.534 68.4901 111.215 69.3638 110.674 70.071L107.207 68.296C106.403 67.8938 105.516 67.672 104.642 67.672C104.115 67.672 103.602 67.7413 103.103 67.8938C102.423 68.088 101.799 68.4208 101.258 68.8507C100.69 69.3083 100.218 69.8769 99.8854 70.5286L99.2892 71.6935H92.522L91.7731 70.5979C91.2462 69.8214 90.5251 69.1835 89.6792 68.7536C88.8749 68.3515 87.9874 68.1296 87.0999 68.1296H87.0028C86.0321 68.1435 85.0892 68.4208 84.271 68.92L79.7364 71.6935H24.9888C22.7007 71.6935 20.8286 69.8214 20.8286 67.5333ZM121.907 97.7222C121.782 97.8608 121.615 97.9302 121.393 97.9302L117.081 98.0411L115.084 98.0966L114.612 99.7468C114.515 100.08 114.418 100.412 114.307 100.731C114.072 101.411 113.794 102.076 113.475 102.687C113.018 103.588 112.435 104.475 111.756 105.335L111.686 105.418L110.688 106.667L111.34 107.637L114.238 111.894C114.321 112.019 114.404 112.213 114.363 112.435C114.335 112.574 114.238 112.699 114.113 112.782L108.497 116.207C108.386 116.276 108.247 116.318 108.095 116.318C107.942 116.318 107.79 116.276 107.637 116.207C107.485 116.138 107.36 116.027 107.277 115.888L103.796 110.785L102.257 111.118C101.023 111.381 99.7606 111.52 98.4987 111.52C97.5419 111.52 96.5712 111.437 95.6144 111.298L93.9503 111.035L91.163 116.471C91.0659 116.665 90.8302 116.79 90.5528 116.79C90.4003 116.79 90.2477 116.748 90.1091 116.679L84.0075 113.545C83.7856 113.434 83.6331 113.253 83.5499 113.059C83.5083 112.962 83.4667 112.754 83.5638 112.56L85.6438 108.497L86.3511 107.124L85.1585 105.932C85.0892 105.862 85.0198 105.793 84.9644 105.724C84.1323 104.864 83.3974 103.935 82.7733 102.95C82.2603 102.146 81.8026 101.314 81.4282 100.44L80.8042 98.998L74.6056 99.1643C74.453 99.1643 74.3005 99.1227 74.1618 99.0534C73.8706 98.9009 73.6765 98.6374 73.6626 98.3601L73.1772 91.8009C73.1634 91.6483 73.205 91.5097 73.3159 91.3987C73.4407 91.2601 73.6071 91.1907 73.829 91.1907L80.1386 91.0243L80.5962 89.3741C80.7765 88.7362 80.9845 88.1122 81.2341 87.5298C81.3866 87.1554 81.553 86.7948 81.7333 86.4343C81.8026 86.2956 81.8858 86.1569 81.9552 86.0183C82.3712 85.2556 82.8843 84.5067 83.4528 83.7856L84.5206 82.4405L84.2017 81.969L80.9845 77.2542L80.9567 77.2265C80.8319 77.0462 80.7903 76.8659 80.8319 76.6856C80.8597 76.547 80.9567 76.4222 81.0815 76.339L86.6978 72.8999C86.8087 72.8306 86.9474 72.789 87.0999 72.789C87.2524 72.789 87.405 72.8306 87.5575 72.8999C87.7101 72.9692 87.8349 73.0802 87.9181 73.2188L90.6638 77.2403L91.3987 78.322L92.938 77.9892C94.1722 77.7257 95.4341 77.587 96.696 77.587C97.6528 77.587 98.6235 77.6702 99.5804 77.8089L101.244 78.0724L101.674 77.2265L104.032 72.6364C104.129 72.4423 104.365 72.3175 104.642 72.3175C104.794 72.3175 104.947 72.3591 105.086 72.4284L111.187 75.5624C111.465 75.7011 111.659 75.9646 111.686 76.228C111.7 76.339 111.686 76.4499 111.631 76.547L108.844 81.9829L108.955 82.0938L110.036 83.1894C111.229 84.3958 112.227 85.7132 113.018 87.1554C113.295 87.6546 113.545 88.1538 113.767 88.6808L114.293 89.8872L114.391 90.123L116.942 90.0536L120.603 89.9565C120.756 89.9565 120.908 89.9981 121.047 90.0675C121.338 90.22 121.532 90.4835 121.546 90.7608L122.031 97.32C122.045 97.4726 122.004 97.6112 121.907 97.7222Z" fill="#003B70"/>
<path d="M95.9888 81.9552H97.8331C97.2091 81.9134 96.5989 81.9134 95.9888 81.9552Z" fill="#F58733"/>
<path d="M109.509 90.7884C109.107 89.6236 108.525 88.5281 107.818 87.5296C107.54 87.1414 107.249 86.7808 106.93 86.4203C106.805 86.2816 106.667 86.129 106.528 85.9904C105.516 84.9503 104.337 84.0767 103.019 83.3972C101.536 82.6345 99.9409 82.163 98.2908 81.9828L97.8331 81.9412H95.9888C95.0597 82.0105 94.1445 82.163 93.2431 82.4404C91.5929 82.9257 90.1091 83.7162 88.8195 84.7839C88.3757 85.1583 87.9597 85.5605 87.5714 85.9765C87.1415 86.448 86.7671 86.9472 86.4204 87.488C86.2124 87.8208 86.0044 88.1675 85.8242 88.5142C85.0892 89.9564 84.6593 91.5095 84.5345 93.132C84.4097 94.8099 84.6454 96.474 85.214 98.0964C85.7825 99.705 86.6423 101.175 87.7933 102.465C87.932 102.631 88.0845 102.784 88.237 102.936C89.2493 103.962 90.4142 104.822 91.7038 105.488C91.8564 105.571 92.0089 105.64 92.1753 105.71C93.5343 106.334 94.9626 106.736 96.4326 106.902C98.1382 107.082 99.8439 106.93 101.48 106.444C102.146 106.25 102.77 106.001 103.38 105.71C104.281 105.28 105.127 104.739 105.904 104.087C106.334 103.727 106.736 103.338 107.11 102.936C107.818 102.16 108.414 101.3 108.899 100.357C109.634 98.9146 110.064 97.3615 110.189 95.739C110.314 94.075 110.078 92.4109 109.509 90.7884ZM107.291 95.5449C107.207 96.7652 106.875 97.9439 106.32 99.0394C105.765 100.135 105.002 101.078 104.06 101.868C103.56 102.284 103.019 102.645 102.437 102.95C101.882 103.241 101.3 103.477 100.676 103.657C99.4001 104.032 98.0827 104.156 96.7515 104.004C95.4896 103.865 94.2831 103.505 93.1322 102.936C93.1044 102.922 93.0767 102.908 93.0351 102.894C91.8702 102.298 90.8302 101.494 89.9704 100.537C89.0829 99.5386 88.4035 98.4015 87.9736 97.1535C87.5437 95.9054 87.3634 94.6296 87.4605 93.3539C87.5437 92.1335 87.8765 90.9548 88.4312 89.8593C88.8888 88.9718 89.4712 88.1814 90.1784 87.5019C90.3449 87.3355 90.5113 87.183 90.6915 87.0304C91.163 86.6283 91.69 86.2816 92.2308 85.9904C92.8132 85.6853 93.4234 85.4218 94.0751 85.2277C95.3509 84.8533 96.6683 84.7285 97.9995 84.881C99.2892 85.0197 100.537 85.3941 101.702 85.9904C102.506 86.4064 103.241 86.9056 103.907 87.5019C104.212 87.7654 104.503 88.0566 104.767 88.3617C105.654 89.3601 106.334 90.4972 106.764 91.7453C107.207 92.9933 107.374 94.2691 107.291 95.5449Z" fill="#F58733"/>
</svg>
